<?xml version="1.0" encoding="utf-8"?>
<!-- Generator: Adobe Illustrator 15.0.0, SVG Export Plug-In . SVG Version: 6.00 Build 0)  -->
<!DOCTYPE svg PUBLIC "-//W3C//DTD SVG 1.1//EN" "http://www.w3.org/Graphics/SVG/1.1/DTD/svg11.dtd">
<svg version="1.1" id="Layer_1" xmlns="http://www.w3.org/2000/svg" xmlns:xlink="http://www.w3.org/1999/xlink" x="0px" y="0px"
	 width="273.892px" height="80px" viewBox="0 0 273.892 80" enable-background="new 0 0 273.892 80" xml:space="preserve">
<g>
	<g>
		<polygon fill-rule="evenodd" clip-rule="evenodd" fill="#FFFFFF" points="84.843,42.955 103.871,42.955 103.871,35.457 
			93.325,35.457 93.325,28.056 101.288,28.056 101.288,20.557 93.325,20.557 93.325,13.477 103.406,13.477 103.406,5.979 
			84.843,5.979 		"/>
		<path fill-rule="evenodd" clip-rule="evenodd" fill="#FFFFFF" d="M108.972,42.955h8.011V25.939c0-2.332-0.463-6.207-0.463-6.207
			h0.202c0,0,0.777,3.671,1.756,6.207l6.363,17.016h8.894V5.979h-7.962v17.017c0,2.32,0.465,6.196,0.465,6.196h-0.213
			c0,0-0.778-3.671-1.806-6.148l-6.304-17.065h-8.943V42.955z"/>
		<polygon fill-rule="evenodd" clip-rule="evenodd" fill="#FFFFFF" points="140.323,42.955 148.807,42.955 148.807,29.094 
			156.872,29.094 156.872,21.597 148.807,21.597 148.807,13.477 158.736,13.477 158.736,5.979 140.323,5.979 		"/>
		<path fill-rule="evenodd" clip-rule="evenodd" fill="#FFFFFF" d="M161.864,24.229c0,11.013,5.384,19.347,15.095,19.347
			c9.731,0,15.15-8.387,15.15-19.289c0-10.859-5.419-18.93-15.15-18.93C167.248,5.357,161.864,13.477,161.864,24.229 M170.55,24.229
			c0-6.352,2.02-10.752,6.409-10.752c4.391,0,6.372,4.343,6.372,10.811c0,6.506-1.981,11.169-6.372,11.169
			C172.569,35.457,170.55,30.854,170.55,24.229"/>
		<path fill-rule="evenodd" clip-rule="evenodd" fill="#FFFFFF" d="M197.2,42.955h8.49v-12.52h2.021l5.049,12.52h9.323
			l-5.962-12.878c-0.757-1.604-1.283-2.226-1.283-2.226v-0.106c2.954-1.962,5.072-5.896,5.072-10.391
			c0-4.966-2.547-8.685-6.219-10.334c-1.494-0.68-3.36-1.041-4.797-1.041H197.2V42.955z M205.69,23.044v-9.567h1.901
			c0.68,0,1.557,0.262,2.236,0.778c0.932,0.777,1.495,2.224,1.495,3.981c0,3.049-1.808,4.807-4.042,4.807H205.69z"/>
		<path fill-rule="evenodd" clip-rule="evenodd" fill="#FFFFFF" d="M224.318,24.541c0,10.958,5.965,19.036,16.24,19.036
			c5.07,0,7.868-1.555,10.197-3.321l-3.515-7.181c-1.612,1.295-3.42,2.479-5.965,2.479c-5.207,0-8.216-5.372-8.216-11.422
			c0-5.799,2.798-10.761,8.333-10.761c2.021,0,4.331,1.135,5.383,2.379l3.515-7.284c-2.488-2.177-6.062-3.108-9.325-3.108
			C230.535,5.358,224.318,13.371,224.318,24.541"/>
		<polygon fill-rule="evenodd" clip-rule="evenodd" fill="#FFFFFF" points="254.855,42.955 273.892,42.955 273.892,35.457 
			263.344,35.457 263.344,28.056 271.309,28.056 271.309,20.557 263.344,20.557 263.344,13.477 273.427,13.477 273.427,5.979 
			254.855,5.979 		"/>
		<path fill-rule="evenodd" clip-rule="evenodd" fill="#FFFFFF" d="M84.843,72.172c1.56,1.334,3.624,1.991,5.56,1.991
			c4.124,0,6.188-2.853,6.188-6.095c0-5.744-6.661-5.581-6.661-8.535c0-0.922,0.566-1.703,1.87-1.703
			c1.006,0,2.339,0.615,3.005,1.211l1.643-4.021c-1.366-0.965-3.119-1.416-4.76-1.416c-3.982,0-6.311,2.586-6.311,5.992
			c0,5.664,6.618,5.928,6.618,8.656c0,0.904-0.584,1.684-1.808,1.684c-1.279,0-2.45-0.8-3.229-1.661L84.843,72.172z"/>
		<polygon fill-rule="evenodd" clip-rule="evenodd" fill="#FFFFFF" points="98.869,73.834 109.108,73.834 109.108,69.793 
			103.433,69.793 103.433,65.832 107.722,65.832 107.722,61.789 103.433,61.789 103.433,57.973 108.861,57.973 108.861,53.932 
			98.869,53.932 		"/>
		<path fill-rule="evenodd" clip-rule="evenodd" fill="#FFFFFF" d="M111.107,63.924c0,5.911,3.199,10.239,8.739,10.239
			c2.732,0,4.228-0.821,5.48-1.765l-1.888-3.879c-0.86,0.698-1.837,1.334-3.2,1.334c-2.811,0-4.422-2.893-4.422-6.154
			c0-3.102,1.497-5.787,4.481-5.787c1.08,0,2.329,0.616,2.895,1.293l1.887-3.922c-1.336-1.166-3.253-1.68-5.008-1.68
			C114.451,53.604,111.107,57.912,111.107,63.924"/>
		<path fill-rule="evenodd" clip-rule="evenodd" fill="#FFFFFF" d="M127.473,67.289c0,4.207,2.594,6.874,6.678,6.874
			c3.979,0,6.601-2.667,6.601-6.874V53.932h-4.569v13.357c0,1.929-0.802,2.646-2.054,2.646c-1.283,0-2.091-0.718-2.091-2.646V53.932
			h-4.564V67.289z"/>
		<path fill-rule="evenodd" clip-rule="evenodd" fill="#FFFFFF" d="M144.225,73.834h4.558v-6.729h1.087l2.729,6.729h5.005
			l-3.199-6.934c-0.414-0.862-0.683-1.191-0.683-1.191v-0.061c1.581-1.047,2.711-3.161,2.711-5.584c0-2.666-1.355-4.676-3.328-5.559
			c-0.815-0.369-1.807-0.574-2.585-0.574h-6.295V73.834z M148.782,63.123v-5.15h1.038c0.354,0,0.828,0.143,1.195,0.412
			c0.495,0.43,0.803,1.211,0.803,2.152c0,1.645-0.967,2.586-2.162,2.586H148.782z"/>
		<rect x="159.695" y="53.932" fill-rule="evenodd" clip-rule="evenodd" fill="#FFFFFF" width="4.574" height="19.902"/>
		<polygon fill-rule="evenodd" clip-rule="evenodd" fill="#FFFFFF" points="170.96,73.834 175.493,73.834 175.493,57.973 
			179.906,57.973 179.906,53.932 166.588,53.932 166.588,57.973 170.96,57.973 		"/>
		<path fill-rule="evenodd" clip-rule="evenodd" fill="#FFFFFF" d="M186.573,73.834h4.536v-8.146l5.067-11.756h-5.028l-1.478,4.801
			c-0.471,1.355-0.759,2.854-0.759,2.854h-0.101c0,0-0.288-1.498-0.74-2.854l-1.519-4.801h-5.048l5.068,11.756V73.834z"/>
	</g>
	<path fill="#FFFFFF" d="M66.526,51.338C66.526,71.945,41.363,80,33.269,80C25.163,80,0,71.945,0,51.338V0h66.526V51.338z"/>
	<path fill="#FFFFFF" d="M14.892,20.967v27.704c0,0.759,0.028,1.478,0.178,2.208c0.387,2.166,1.572,4.195,3.394,5.682
		c0.906,0.775,1.958,1.336,2.9,1.793c2.239,1.08,9.377,4.941,11.904,4.941c2.516,0,9.654-3.861,11.895-4.941
		c0.942-0.457,1.993-1.018,2.912-1.793c1.81-1.486,2.993-3.516,3.382-5.682c0.15-0.73,0.178-1.449,0.178-2.208V20.967H14.892z"/>
	<path fill="#ED7004" d="M49.947,50.572c-0.326,1.799-1.314,3.514-2.866,4.797c-0.754,0.645-1.662,1.137-2.588,1.586
		c-2.164,1.031-9.268,4.787-11.225,4.787c-1.968,0-9.061-3.756-11.235-4.787c-0.926-0.449-1.834-0.941-2.59-1.586
		c-1.552-1.283-2.54-2.998-2.854-4.797c-0.172-0.809-0.146-1.107-0.146-1.906V22.512h33.637v26.154
		C50.081,49.465,50.106,49.764,49.947,50.572"/>
	<path fill="#FFFFFF" d="M35.148,49.979h-3.086V39.942l2.628-0.004l1.937,7.349l1.705-6.756l0.228-0.872l1.33,4.423l1.991-4.165
		l1.977,0.005l0.002-2.053l-2.534-0.008l-1.02,2.211l-1.746-6.291l-0.982,4.247l-0.793,3.362l-0.935-3.508l-3.789,0.006v-7.141
		h3.086c2.847,0,5.274,1.06,7.036,3.03l1.839-0.964l-2.413-4.187H22.77v2.12h1.33c0.746,0,1.359,0.61,1.359,1.356v16.507
		c0,0.756-0.613,1.367-1.359,1.367h-1.33V52.1h19.445l3.212-6.068l-1.96-0.811C41.801,48.113,38.712,49.979,35.148,49.979"/>
	<path fill-rule="evenodd" clip-rule="evenodd" fill="#FFFFFF" d="M16.132,12.135c0-0.645-0.125-1.707-0.073-1.707
		c0,0,0.217,1.01,0.49,1.707l1.74,4.666h2.447V6.647h-2.189v4.675c0,0.634,0.126,1.698,0.073,1.698c0,0-0.219-1-0.499-1.688
		l-1.729-4.686h-2.458v10.153h2.197V12.135z M9.638,12.708h2.188v-2.053H9.638V8.709h2.771V6.647H7.306v10.153h5.229v-2.063H9.638
		V12.708z M32.607,16.967c2.666,0,4.154-2.29,4.154-5.29c0-2.978-1.488-5.196-4.154-5.196c-2.676,0-4.156,2.228-4.156,5.186
		C28.451,14.686,29.931,16.967,32.607,16.967 M32.607,8.709c1.208,0,1.738,1.188,1.738,2.968c0,1.792-0.531,3.061-1.738,3.061
		c-1.208,0-1.76-1.258-1.76-3.071C30.848,9.917,31.399,8.709,32.607,8.709 M24.875,13h2.207v-2.061h-2.207V8.709h2.729V6.647h-5.064
		v10.153h2.334V13z M56.325,14.738v-2.029h2.188v-2.053h-2.188V8.709h2.769V6.647h-5.102v10.153h5.228v-2.063H56.325z
		 M40.496,13.364h0.552l1.385,3.437h2.562l-1.635-3.529c-0.209-0.45-0.354-0.616-0.354-0.647c0.811-0.542,1.384-1.614,1.384-2.854
		c0-1.363-0.687-2.385-1.697-2.832c-0.417-0.187-0.926-0.292-1.323-0.292h-3.207v10.153h2.333V13.364z M40.496,8.709h0.521
		c0.187,0,0.427,0.073,0.613,0.208c0.252,0.219,0.407,0.614,0.407,1.093c0,0.845-0.499,1.323-1.104,1.323h-0.437V8.709z
		 M50.27,14.77c-1.436,0-2.261-1.479-2.261-3.134c0-1.594,0.771-2.958,2.292-2.958c0.552,0,1.188,0.314,1.468,0.658l0.97-2
		c-0.678-0.604-1.658-0.854-2.552-0.854c-2.873,0-4.572,2.196-4.572,5.27c0,3.008,1.625,5.216,4.457,5.216
		c1.386,0,2.157-0.416,2.792-0.906l-0.959-1.967C51.457,14.446,50.967,14.77,50.27,14.77 M44.802,65.1l-0.476-1.025l-3.394,1.576
		l0.478,1.045l1.119-0.525l1.882,4.045l1.162-0.538l-1.892-4.048L44.802,65.1z M38.95,66.119l1.549,5.383l1.227-0.346l-1.537-5.381
		L38.95,66.119z M37.729,69.761c0.397-0.364,0.632-0.997,0.541-1.657c-0.106-0.756-0.569-1.25-1.153-1.438
		c-0.239-0.051-0.521-0.081-0.743-0.038l-1.752,0.243l0.779,5.54l1.276-0.172l-0.267-1.876l0.305-0.051l1.02,1.775l1.399-0.205
		l-1.165-1.803C37.817,69.854,37.729,69.771,37.729,69.761 M36.492,69.215l-0.238,0.025l-0.201-1.426l0.284-0.031
		c0.105-0.03,0.237,0.004,0.349,0.051c0.157,0.111,0.273,0.305,0.31,0.58C37.065,68.855,36.83,69.16,36.492,69.215 M47.804,61.477
		l-1.132,0.854l0.475,1.326c0.125,0.387,0.317,0.773,0.301,0.788c0,0-0.328-0.298-0.653-0.53l-1.157-0.805l-1.133,0.854l3.124,1.764
		l1.389,1.843l1.018-0.771l-1.388-1.824L47.804,61.477z M19.614,63.586c0.225,0.168,0.417,0.541,0.462,0.783l1.054-0.607
		c-0.128-0.457-0.439-0.855-0.81-1.129c-0.876-0.691-1.845-0.527-2.432,0.234c-0.983,1.254,0.437,2.449-0.032,3.06
		c-0.159,0.192-0.426,0.266-0.697,0.065c-0.282-0.224-0.399-0.605-0.428-0.93l-1.14,0.488c0.115,0.562,0.458,1.077,0.889,1.408
		c0.911,0.711,1.869,0.443,2.424-0.27c0.99-1.289-0.507-2.398,0.003-3.045C19.068,63.434,19.328,63.357,19.614,63.586 M24.072,66.24
		l0.522-1.012l-2.512-1.27l-2.539,4.968l2.569,1.313l0.513-1.01l-1.417-0.721l0.506-1.002l1.071,0.547l0.524-1.012l-1.08-0.549
		l0.492-0.949L24.072,66.24z M27.724,66.113c-1.523-0.421-2.762,0.472-3.229,2.1c-0.46,1.605,0.073,3.026,1.567,3.443
		c0.739,0.22,1.208,0.117,1.625-0.039l-0.217-1.208c-0.283,0.131-0.597,0.224-0.959,0.125c-0.767-0.222-0.974-1.138-0.727-2.015
		c0.241-0.845,0.857-1.436,1.665-1.203c0.287,0.08,0.585,0.336,0.678,0.563l0.817-0.921C28.673,66.547,28.196,66.256,27.724,66.113
		 M32.002,70.559c-0.037,0.541-0.276,0.721-0.629,0.701c-0.356-0.019-0.563-0.24-0.524-0.783l0.254-3.748l-1.273-0.084l-0.266,3.748
		c-0.081,1.176,0.59,1.972,1.734,2.051c1.121,0.078,1.905-0.62,1.987-1.798l0.266-3.748l-1.283-0.087L32.002,70.559z"/>
	<path fill="#231F20" d="M36.688,67.834c-0.115-0.047-0.245-0.081-0.35-0.051l-0.284,0.031l0.201,1.426l0.238-0.025
		c0.339-0.055,0.573-0.359,0.505-0.801C36.959,68.139,36.843,67.945,36.688,67.834 M32.608,14.738c1.206,0,1.737-1.269,1.737-3.061
		c0-1.781-0.532-2.968-1.737-2.968c-1.21,0-1.761,1.207-1.761,2.958C30.848,13.479,31.398,14.738,32.608,14.738 M3.096,3.096v48.242
		c0,17.75,22.369,25.554,30.171,25.554c7.794,0,30.162-7.804,30.162-25.554V3.096H3.096z M38.163,6.647h3.207
		c0.396,0,0.906,0.104,1.323,0.292c1.01,0.447,1.697,1.469,1.697,2.833c0,1.239-0.573,2.312-1.384,2.853
		c0,0.031,0.145,0.197,0.354,0.647l1.635,3.529h-2.562l-1.385-3.437h-0.552v3.437h-2.333V6.647z M32.608,6.481
		c2.664,0,4.153,2.218,4.153,5.196c0,3-1.489,5.29-4.153,5.29c-2.677,0-4.157-2.281-4.157-5.3
		C28.451,8.709,29.931,6.481,32.608,6.481 M22.542,6.647h5.063v2.062h-2.729v2.229h2.207V13h-2.207v3.8h-2.333V6.647z
		 M12.535,16.801H7.307V6.647h5.103v2.062H9.638v1.947h2.188v2.053H9.638v2.029h2.897V16.801z M13.935,6.647h2.458l1.729,4.686
		c0.281,0.688,0.499,1.688,0.499,1.688c0.053,0-0.074-1.064-0.074-1.698V6.647h2.19v10.153H18.29l-1.741-4.666
		c-0.271-0.697-0.489-1.707-0.489-1.707c-0.052,0,0.074,1.062,0.074,1.707v4.666h-2.198V6.647z M18.905,66.689
		c-0.555,0.713-1.513,0.98-2.424,0.27c-0.431-0.331-0.774-0.847-0.889-1.408l1.14-0.488c0.029,0.324,0.146,0.706,0.428,0.93
		c0.271,0.2,0.537,0.127,0.697-0.065c0.469-0.61-0.951-1.806,0.032-3.06c0.586-0.762,1.555-0.926,2.433-0.234
		c0.37,0.273,0.681,0.672,0.809,1.129l-1.055,0.607c-0.046-0.242-0.235-0.615-0.462-0.783c-0.285-0.229-0.545-0.152-0.706,0.059
		C18.399,64.291,19.895,65.4,18.905,66.689 M23.309,67.043l-0.525,1.012l-1.069-0.547l-0.507,1.002l1.417,0.719l-0.513,1.012
		l-2.569-1.313l2.539-4.966l2.512,1.268l-0.524,1.012l-1.35-0.695l-0.492,0.949L23.309,67.043z M28.126,67.88
		c-0.092-0.228-0.392-0.483-0.678-0.563c-0.808-0.232-1.424,0.358-1.665,1.203c-0.248,0.877-0.04,1.793,0.728,2.015
		c0.362,0.099,0.675,0.006,0.958-0.125l0.218,1.208c-0.417,0.156-0.887,0.259-1.625,0.039c-1.494-0.417-2.028-1.838-1.567-3.441
		c0.467-1.63,1.708-2.522,3.229-2.102c0.472,0.143,0.949,0.434,1.22,0.846L28.126,67.88z M33.286,70.646
		c-0.083,1.178-0.866,1.878-1.985,1.798c-1.145-0.079-1.817-0.875-1.735-2.051l0.265-3.748l1.274,0.084l-0.254,3.748
		c-0.039,0.543,0.168,0.765,0.524,0.783c0.353,0.02,0.593-0.16,0.629-0.701l0.266-3.748l1.283,0.087L33.286,70.646z M37.735,72.088
		l-1.021-1.775l-0.305,0.053l0.267,1.874L35.4,72.411l-0.779-5.54l1.752-0.243c0.223-0.043,0.504-0.013,0.743,0.038
		c0.585,0.188,1.046,0.684,1.154,1.438c0.09,0.66-0.144,1.293-0.543,1.657c0.002,0.011,0.088,0.093,0.24,0.319l1.167,1.803
		L37.735,72.088z M40.498,71.502l-1.548-5.383l1.239-0.344l1.537,5.381L40.498,71.502z M44.41,70.215l-1.882-4.045l-1.119,0.525
		l-0.478-1.045l3.394-1.576l0.476,1.025l-1.122,0.529l1.892,4.048L44.41,70.215z M49.016,67.569l-1.389-1.841l-3.124-1.766
		l1.133-0.854l1.157,0.805c0.326,0.232,0.653,0.53,0.653,0.53c0.017-0.015-0.176-0.399-0.301-0.788l-0.475-1.326l1.132-0.854
		l0.842,3.498l1.388,1.824L49.016,67.569z M51.634,48.671c0,0.759-0.027,1.478-0.178,2.208c-0.389,2.166-1.572,4.195-3.382,5.682
		c-0.919,0.775-1.97,1.336-2.912,1.793c-2.24,1.08-9.378,4.941-11.896,4.941c-2.527,0-9.665-3.861-11.902-4.941
		c-0.944-0.457-1.995-1.018-2.903-1.793c-1.82-1.486-3.006-3.516-3.394-5.682c-0.148-0.73-0.177-1.449-0.177-2.208V20.968h36.743
		V48.671z M50.071,16.967c-2.831,0-4.457-2.208-4.457-5.216c0-3.074,1.697-5.27,4.572-5.27c0.895,0,1.875,0.25,2.552,0.854l-0.97,2
		c-0.28-0.344-0.916-0.658-1.468-0.658c-1.521,0-2.292,1.365-2.292,2.958c0,1.656,0.825,3.134,2.261,3.134
		c0.697,0,1.187-0.323,1.635-0.676l0.959,1.967C52.228,16.551,51.457,16.967,50.071,16.967 M59.221,16.801h-5.229V6.647h5.102v2.062
		h-2.769v1.947h2.188v2.053h-2.188v2.029h2.896V16.801z M42.037,10.01c0-0.479-0.155-0.874-0.407-1.093
		c-0.187-0.136-0.426-0.208-0.613-0.208h-0.521v2.624h0.437C41.537,11.333,42.037,10.855,42.037,10.01"/>
</g>
</svg>
