<?xml version="1.0" encoding="UTF-8" standalone="no"?>
<!-- Created with Inkscape (http://www.inkscape.org/) -->

<svg
   xmlns:dc="http://purl.org/dc/elements/1.1/"
   xmlns:cc="http://creativecommons.org/ns#"
   xmlns:rdf="http://www.w3.org/1999/02/22-rdf-syntax-ns#"
   xmlns:svg="http://www.w3.org/2000/svg"
   xmlns="http://www.w3.org/2000/svg"
   xmlns:sodipodi="http://sodipodi.sourceforge.net/DTD/sodipodi-0.dtd"
   xmlns:inkscape="http://www.inkscape.org/namespaces/inkscape"
   width="300"
   height="73"
   viewBox="0 0 300 73.000004"
   id="svg2"
   version="1.1"
   inkscape:version="0.91 r13725"
   sodipodi:docname="enpower.svg">
  <defs
     id="defs4" />
  <sodipodi:namedview
     id="base"
     pagecolor="#ffffff"
     bordercolor="#666666"
     borderopacity="1.0"
     inkscape:pageopacity="0.0"
     inkscape:pageshadow="2"
     inkscape:zoom="1.4"
     inkscape:cx="250.77486"
     inkscape:cy="225.26406"
     inkscape:document-units="px"
     inkscape:current-layer="layer1"
     showgrid="false"
     inkscape:window-width="1871"
     inkscape:window-height="1056"
     inkscape:window-x="1649"
     inkscape:window-y="1104"
     inkscape:window-maximized="1"
     units="px" />
  <metadata
     id="metadata7">
    <rdf:RDF>
      <cc:Work
         rdf:about="">
        <dc:format>image/svg+xml</dc:format>
        <dc:type
           rdf:resource="http://purl.org/dc/dcmitype/StillImage" />
        <dc:title></dc:title>
      </cc:Work>
    </rdf:RDF>
  </metadata>
  <g
     inkscape:label="Layer 1"
     inkscape:groupmode="layer"
     id="layer1"
     transform="translate(0,-979.3622)">
    <g
       id="g4242"
       transform="matrix(0.16428471,0,0,0.16428471,-84.638905,1061.6875)">
      <path
         id="path4232"
         d="m 515.19879,-57.804457 c 0.031,-0.73333 11.8676,-47.445253 26.3039,-103.804253 l 26.2477,-102.47093 8.4462,-2.68634 c 6.869,-2.18472 20.8469,-5.49627 35.623,-8.43957 2.9408,-0.58578 3.085,-2.02578 1.5963,-15.93224 -3.2082,-29.96791 -9.1322,-57.87966 -19.1546,-90.25 -1.0644,-3.4375 -1.6246,-6.25 -1.2451,-6.25 1.5541,0 23.235,13.63194 33.0733,20.79493 47.457,34.55228 85.7189,82.79076 108.8667,137.25326 4.5876,10.79375 12.4378,33.27337 14.7914,42.35645 0.8621,3.32674 2.0226,6.89913 2.5789,7.93865 1.6655,3.11195 3.1963,0.32046 7.1677,-13.07058 12.4567,-42.00241 33.4731,-82.37844 60.2618,-115.77271 11.3391,-14.13521 34.8188,-37.60648 48.8868,-48.86934 12.2019,-9.76888 29.3369,-21.45612 39.9142,-27.22422 5.8704,-3.20129 6.8317,-3.47885 6.367,-1.83849 -0.301,1.06263 -2.4042,8.00705 -4.6739,15.43205 -9.5685,31.30258 -19.9932,92.09837 -16.1948,94.44594 0.6313,0.39017 6.5359,1.82191 13.1212,3.18167 13.0888,2.7026 30.7243,7.73041 32.1636,9.16972 1.2702,1.27013 53.6817,206.638983 52.8233,206.982423 -0.3845,0.15386 -4.3788,-1.78959 -8.8763,-4.31877 -49.8855,-28.05363 -114.92,-33.9798 -176.1136,-16.04808 -4.6582,1.36498 -8.6149,2.33619 -8.7929,2.15824 -0.178,-0.17796 3.1832,-2.57051 7.4693,-5.31679 17.3009,-11.08546 36.5056,-18.97512 56.8984,-23.374973 14.0802,-3.0379 43.5003,-3.74898 59.4059,-1.43583 12.3258,1.79253 22.9285,4.25346 32.3951,7.518983 7.7566,2.67562 9.605,2.63449 9.55,-0.21253 -0.024,-1.2375 -8.0122,-35.325003 -17.7517,-75.750003 l -17.7082,-73.5 -5.3068,-1.76084 c -2.9186,-0.96846 -10.75,-2.72282 -17.403,-3.89857 -11.7193,-2.0711 -12.1383,-2.08039 -13.4416,-0.29803 -1.6525,2.25998 -1.7538,15.88485 -0.2971,39.95744 0.8823,14.58022 1.7815,22.7537 5.6264,51.13998 l 0.5608,4.13998 -5.3677,0.6972 c -7.8221,1.016 -25.2191,7.00876 -33.8676,11.66644 -21.5026,11.58026 -40.5709,26.45066 -65.25,50.885173 -9.7625,9.66577 -17.75,17.36235 -17.75,17.10353 0,-1.03242 6.6182,-12.11734 12.1475,-20.34603 19.315,-28.744383 49.6162,-55.878033 80.1664,-71.786273 4.753,-2.475 8.8309,-4.97958 9.0619,-5.56573 0.231,-0.58615 0.038,-7.33615 -0.4288,-15 -3.077,-50.51222 2.506,-108.45242 14.5759,-151.2685 1.9124,-6.78383 3.4771,-12.74633 3.4771,-13.25 0,-7.64991 -43.9586,30.72911 -61.947,54.08423 -37.4416,48.61188 -63.425,110.17351 -75.551,179 -1.405,7.975 -2.8321,16.075 -3.1712,18 -0.4879,2.76932 -1.2091,0.099 -3.4549,-12.79102 -17.9214,-102.8659 -62.1089,-184.70141 -125.1973,-231.8665 -5.4017,-4.03837 -10.5134,-7.34248 -11.3594,-7.34248 -1.9958,0 -1.6401,2.24374 3.4876,22 4.3608,16.80148 8.2494,38.4088 10.8878,60.5 1.2968,10.8577 1.6948,23.53913 1.7733,56.5 l 0.1011,42.5 9.564,5.1173 c 27.5472,14.73933 53.9271,37.35522 72.7654,62.3827 8.4474,11.222833 18.7099,27.724993 17.8048,28.630143 -0.2491,0.24906 -3.9115,-3.27834 -8.1389,-7.83866 -24.6003,-26.538203 -55.2147,-50.537323 -78.902,-61.852483 -9.7917,-4.6774 -26.886,-9.939 -32.2905,-9.939 -1.3045,0 -2.3718,-0.21522 -2.3718,-0.47827 0,-0.26305 0.8767,-6.00055 1.9482,-12.75 3.3626,-21.18043 4.4415,-35.51934 4.4975,-59.77173 l 0.054,-23.5 -4.9264,0.26017 c -8.8667,0.46825 -28.7639,4.97592 -30.5786,6.92754 -2.296,2.46916 -37.4655,149.241723 -36.0907,150.616593 0.6484,0.64832 5.2023,-0.25462 13.291,-2.63526 21.735,-6.397013 27.5901,-7.173223 53.8047,-7.132883 20.3567,0.0313 24.8376,0.32841 33.5,2.22107 13.8485,3.02575 27.2075,7.575983 39,13.283883 9.9737,4.82749 26.1147,14.67757 25.3329,15.4594 -0.2267,0.22667 -3.9943,-0.7055 -8.3725,-2.07151 -11.4969,-3.58704 -35.139,-8.16043 -48.4604,-9.37428 -43.4176,-3.95624 -82.5589,3.13564 -120,21.74239 -8.525,4.23659 -15.8375,7.85289 -16.25,8.03622 -0.4125,0.18334 -0.7247,-0.26666 -0.6939,-1 z"
         style="fill:#f66e27;fill-opacity:1"
         inkscape:connector-curvature="0" />
      <path
         id="path4230"
         d="m 1654.5255,-72.527617 c -10.8593,-2.79832 -21.3274,-11.96415 -26.8397,-23.5007 -11.3684,-23.792643 -7.3768,-56.761223 8.8292,-72.924493 13.1074,-13.07288 33.7594,-16.32805 52.1278,-8.2164 8.4137,3.71554 8.5386,4.25128 3.4248,14.6889 -2.4336,4.96724 -4.7128,9.20983 -5.0648,9.42799 -0.3521,0.21816 -2.6754,-0.74089 -5.1629,-2.13121 -13.3725,-7.474 -28.2862,-1.79438 -33.333,12.69424 -2.8074,8.05949 -2.5232,24.36406 0.5615,32.2163 5.3289,13.564863 17.3926,18.985023 27.9565,12.560733 2.9348,-1.78478 3.1179,-2.24936 3.1179,-7.910833 l 0,-6.0147 -4.25,-0.0153 c -6.6618,-0.024 -6.8634,-0.38062 -6.5382,-11.56733 l 0.2882,-9.91737 15.5,0 15.5,0 0,29.5 0,29.500003 -8.8331,0.29015 c -8.1758,0.26855 -8.8728,0.13832 -9.3667,-1.75 -0.6677,-2.55339 -0.5282,-2.56493 -6.9452,0.57457 -5.7356,2.80621 -15.3342,3.94832 -20.9723,2.49545 z"
         style="fill:#262524"
         inkscape:connector-curvature="0" />
      <path
         id="path4228"
         d="m 1771.4073,-73.114967 c -6.3705,-1.79403 -14.3862,-5.75962 -16.2978,-8.06295 -1.2419,-1.4964 -0.8223,-2.8007 3.5628,-11.07571 2.7338,-5.15876 5.4723,-9.380603 6.0856,-9.381863 0.6134,-10e-4 2.1884,0.83407 3.5,1.856303 4.4629,3.47804 8.7771,5.1414 13.3352,5.1414 5.1046,0 8.0431,-2.13324 9.1804,-6.664573 1.2073,-4.81036 -2.1986,-9.04577 -13.6307,-16.95071 -5.775,-3.99322 -12.1855,-9.3497 -14.2455,-11.90328 -12.4424,-15.42329 -6.4675,-40.76616 11.4259,-48.46368 6.4308,-2.76646 16.1563,-3.60521 23.9725,-2.06746 7.1219,1.40115 14.7775,4.70484 15.5466,6.70894 0.5321,1.38672 -4.8961,15.85982 -7.0564,18.81419 -1.0954,1.49806 -1.6734,1.41949 -6.6712,-0.90686 -10.6792,-4.97091 -19.3719,-2.35435 -19.3719,5.83106 0,5.12979 2.6678,8.15866 13.2079,14.99577 11.7418,7.61654 15.6745,11.4482 18.9347,18.44826 2.2224,4.77144 2.442,6.31931 2.0578,14.5 -0.3221,6.858223 -0.9805,10.218743 -2.6214,13.380543 -5.7421,11.06405 -14.1831,16.26357 -27.4133,16.88609 -5.3696,0.25265 -10.1001,-0.12768 -13.5012,-1.08547 z"
         style="fill:#262524"
         inkscape:connector-curvature="0" />
      <path
         id="path4226"
         d="m 2153.3935,-73.115227 c -20.5764,-5.80613 -32.5004,-23.02717 -33.9435,-49.022563 -1.943,-35.00001 17.4893,-59.5 47.1928,-59.5 10.1398,0 24.4418,4.79995 25.9407,8.7061 0.4689,1.2218 -6.2084,15.97293 -8.5513,18.89134 -0.6157,0.76688 -2.6143,0.21516 -6.6352,-1.83169 -7.4297,-3.78202 -13.8792,-3.52 -20.9597,0.85152 -16.1306,9.95901 -16.2201,44.73131 -0.1451,56.376003 6.9212,5.01367 16.8654,4.96969 24.005,-0.10616 1.4599,-1.03791 3.1503,-1.887113 3.7565,-1.887113 0.6062,0 3.2368,4.312613 5.8457,9.583583 l 4.7434,9.58358 -3,2.42382 c -7.7027,6.2233 -26.7484,9.17685 -38.2493,5.93158 z"
         style="fill:#262524"
         inkscape:connector-curvature="0" />
      <path
         id="path4224"
         d="m 2295.4073,-73.114967 c -6.3705,-1.79403 -14.3862,-5.75962 -16.2978,-8.06295 -1.2419,-1.4964 -0.8223,-2.8007 3.5628,-11.07571 2.7338,-5.15876 5.4723,-9.380603 6.0856,-9.381863 0.6134,-10e-4 2.1884,0.83407 3.5,1.856303 4.4629,3.47804 8.7771,5.1414 13.3352,5.1414 5.1046,0 8.0431,-2.13324 9.1804,-6.664573 1.2073,-4.81036 -2.1986,-9.04577 -13.6307,-16.95071 -5.775,-3.99322 -12.1855,-9.3497 -14.2455,-11.90328 -12.4424,-15.42329 -6.4675,-40.76616 11.4259,-48.46368 6.4308,-2.76646 16.1563,-3.60521 23.9725,-2.06746 7.1219,1.40115 14.7775,4.70484 15.5466,6.70894 0.5321,1.38672 -4.8961,15.85982 -7.0564,18.81419 -1.0954,1.49806 -1.6734,1.41949 -6.6712,-0.90686 -10.6792,-4.97091 -19.3719,-2.35435 -19.3719,5.83106 0,5.12979 2.6678,8.15866 13.2079,14.99577 11.7418,7.61654 15.6745,11.4482 18.9347,18.44826 2.2224,4.77144 2.442,6.31931 2.0578,14.5 -0.3221,6.858223 -0.9805,10.218743 -2.6214,13.380543 -5.7421,11.06405 -14.1831,16.26357 -27.4133,16.88609 -5.3696,0.25265 -10.1001,-0.12768 -13.5012,-1.08547 z"
         style="fill:#262524"
         inkscape:connector-curvature="0" />
      <path
         id="path4222"
         d="m 1108.6251,-74.854857 c -0.2642,-0.70561 -0.5932,-19.50793 -0.7313,-41.782933 l -0.251,-40.5 -9,-0.2498 c -14.5785,-0.40464 -13.6177,0.42916 -13.2847,-11.52796 l 0.2847,-10.22224 34.5,0 34.5,0 0.2847,10.22224 c 0.333,11.95712 1.2938,11.12332 -13.2847,11.52796 l -9,0.2498 -0.5,41.5 -0.5,41.500003 -11.2688,0.28293 c -8.4617,0.21245 -11.3883,-0.0367 -11.7489,-1 z"
         style="fill:#262524"
         inkscape:connector-curvature="0" />
      <path
         id="path4220"
         d="m 1170.6426,-179.13867 -0.2598,51.5 c -0.143,28.325001 -0.04,52.077591 0.2305,52.783201 0.3687,0.9629 3.3023,1.21234 11.7597,1 l 11.2696,-0.283203 0.5605,-17.5 c 0.308,-9.624998 0.6455,-17.612498 0.75,-17.749998 0.1044,-0.1375 1.0787,-0.25 2.166,-0.25 2.6691,0 3.8521,2.12383 10.584,18.999998 3.1813,7.975 6.212,15.0625 6.7344,15.75 1.4704,1.93496 25.7051,1.763769 25.7051,-0.18164 0,-0.78799 -4.2624,-10.539049 -9.4727,-21.667969 l -9.4746,-20.234379 3.9024,-4.23242 c 16.623,-18.03377 11.5683,-47.89724 -9.4825,-56.01562 -4.305,-1.66026 -7.655,-1.91797 -24.9726,-1.91797 l -20,0 z m 29.7148,21.62305 c 3.9574,0.0985 6.5261,1.81153 8.2403,5.42382 3.4386,7.24618 1.0024,17.06012 -4.9336,19.87696 -4.8889,2.31991 -8.3626,2.06037 -9.043,-0.67383 -0.3081,-1.2375 -0.4295,-7.2 -0.2695,-13.25 l 0.291,-11 3.9336,-0.32031 c 0.6236,-0.051 1.2159,-0.0707 1.7812,-0.0566 z"
         style="fill:#262524"
         inkscape:connector-curvature="0" />
      <path
         id="path4216"
         d="m 1291.6094,-179.66211 c -6.2863,0.0732 -12.6039,0.51933 -13.1856,1.27344 -1.4447,1.87302 -26.4645,102.644519 -25.7656,103.775389 0.3329,0.53865 5.5164,0.974609 11.5684,0.974609 12.6711,0 11.7529,0.78972 13.9453,-12 1.9927,-11.62492 1.3394,-11.112623 13.7422,-10.783203 l 10.6679,0.283203 2.0293,10 c 1.1169,5.5 2.3949,10.5625 2.8399,11.25 0.929,1.43538 22.2209,1.822752 23.0879,0.419922 0.4989,-0.80717 -24.7586,-102.32973 -25.9297,-104.22461 -0.4586,-0.742 -6.7137,-1.0419 -13,-0.96875 z m 0.1465,28.21484 c 0.492,0.10538 1.0177,2.79046 3.8515,17.21875 1.3946,7.10034 2.5352,13.96284 2.5352,15.25 0,2.21147 -0.3549,2.33985 -6.4414,2.33985 -3.5425,0 -6.6442,-0.3375 -6.8926,-0.75 -0.5546,-0.92108 5.6729,-32.92091 6.584,-33.83203 0.1378,-0.13782 0.2497,-0.25088 0.3633,-0.22657 z"
         style="fill:#262524"
         inkscape:connector-curvature="0" />
      <path
         id="path4212"
         d="m 1344.614,-74.854857 c -0.2703,-0.70561 -0.3743,-24.45793 -0.2313,-52.782933 l 0.2601,-51.5 11.5,0 11.5,0 0,52.5 0,52.500003 -11.2688,0.28293 c -8.4574,0.21234 -11.3913,-0.0371 -11.76,-1 z"
         style="fill:#262524"
         inkscape:connector-curvature="0" />
      <path
         id="path4210"
         d="m 1391.6144,-74.853857 c -0.2705,-0.70612 -0.3747,-24.45893 -0.2317,-52.783933 l 0.2601,-51.5 12.103,-0.2796 c 8.9222,-0.20612 12.3643,0.0567 13.0973,1 0.5469,0.70378 5.6756,13.8796 11.397,29.2796 l 10.4027,28 0.5,-29 0.5,-29 11,0 11,0 0,52.5 0,52.500003 -12.1986,0.28037 c -11.2073,0.25758 -12.2829,0.12274 -13.2367,-1.65937 -0.5709,-1.06686 -5.3439,-13.56802 -10.6066,-27.780373 -5.2628,-14.21235 -9.8813,-26.51563 -10.2634,-27.34063 -0.3821,-0.825 -0.9197,11.55 -1.1947,27.5 l -0.5,29.000003 -10.7683,0.28402 c -8.056,0.21248 -10.8922,-0.0394 -11.2601,-1 z"
         style="fill:#262524"
         inkscape:connector-curvature="0" />
      <path
         id="path4208"
         d="m 1485.614,-74.854857 c -0.2702,-0.70561 -0.3743,-24.45793 -0.2313,-52.782933 l 0.2601,-51.5 11.5,0 11.5,0 0,52.5 0,52.500003 -11.2687,0.28293 c -8.4575,0.21234 -11.3914,-0.0371 -11.7601,-1 z"
         style="fill:#262524"
         inkscape:connector-curvature="0" />
      <path
         id="path4206"
         d="m 1532.6144,-74.853857 c -0.2705,-0.70612 -0.3747,-24.45893 -0.2317,-52.783933 l 0.2601,-51.5 12.103,-0.2796 c 8.9222,-0.20612 12.3643,0.0567 13.0973,1 0.5469,0.70378 5.6756,13.8796 11.397,29.2796 l 10.4027,28 0.5,-29 0.5,-29 11,0 11,0 0,52.5 0,52.500003 -12.1986,0.28037 c -11.2073,0.25758 -12.2829,0.12274 -13.2366,-1.65937 -0.571,-1.06686 -5.344,-13.56802 -10.6067,-27.780373 -5.2627,-14.21235 -9.8812,-26.51563 -10.2634,-27.34063 -0.3821,-0.825 -0.9197,11.55 -1.1947,27.5 l -0.5,29.000003 -10.7683,0.28402 c -8.056,0.21248 -10.8922,-0.0394 -11.2601,-1 z"
         style="fill:#262524"
         inkscape:connector-curvature="0" />
      <path
         id="path4204"
         d="m 1834.6013,-74.887857 c -0.2632,-0.6875 -0.3616,-24.425 -0.2186,-52.750003 l 0.2601,-51.5 26,0 26,0 0.2847,10.22224 c 0.3375,12.12021 1.6863,11.16502 -16.2847,11.53243 l -12,0.24533 0,9 0,9 9,0.2498 c 14.5785,0.40464 13.6177,-0.42916 13.2847,11.52796 l -0.2847,10.22231 -11,0.5 -11,0.5 0,10 0,10.000003 14.2891,0.5 c 11.2196,0.39259 14.4923,0.82223 15.2347,2 1.0446,1.65711 1.3304,15.91348 0.3692,18.41821 -0.5323,1.38716 -3.8583,1.58179 -27.0314,1.58179 -20.2175,0 -26.5368,-0.29361 -26.9031,-1.25 z"
         style="fill:#262524"
         inkscape:connector-curvature="0" />
      <path
         id="path4202"
         d="m 1907.6426,-179.13867 -0.2598,51.5 c -0.143,28.325001 -0.04,52.077691 0.2305,52.783201 0.3687,0.9629 3.3042,1.21234 11.7617,1 l 11.2676,-0.283203 0.5605,-17.5 c 0.308,-9.624998 0.6455,-17.612498 0.75,-17.749998 0.1044,-0.1375 1.0787,-0.25 2.166,-0.25 2.6691,0 3.852,2.12383 10.584,18.999998 3.1812,7.975 6.212,15.0625 6.7344,15.75 1.4704,1.93496 25.7051,1.763769 25.7051,-0.18164 0,-0.78799 -4.2624,-10.539049 -9.4727,-21.667969 l -9.4746,-20.234379 3.9024,-4.23242 c 16.623,-18.03377 11.5683,-47.89724 -9.4825,-56.01562 -4.305,-1.66026 -7.655,-1.91797 -24.9726,-1.91797 l -20,0 z m 29.7148,21.62305 c 3.9574,0.0985 6.526,1.81153 8.2403,5.42382 3.4385,7.24618 1.0024,17.06012 -4.9336,19.87696 -4.8888,2.31991 -8.3626,2.06037 -9.043,-0.67383 -0.3081,-1.2375 -0.4295,-7.2 -0.2695,-13.25 l 0.291,-11 3.9336,-0.32031 c 0.6236,-0.051 1.2159,-0.0707 1.7812,-0.0566 z"
         style="fill:#262524"
         inkscape:connector-curvature="0" />
      <path
         id="path4198"
         d="m 2009.6181,-74.856947 c -1.8175,-4.79323 -28.1997,-103.417903 -27.8261,-104.022373 0.2579,-0.41721 6.0461,-0.75857 12.8628,-0.75857 l 12.394,0 0.8889,3.25 c 0.4889,1.7875 3.7726,17.98456 7.297,35.99346 3.5245,18.0089 6.706,32.7464 7.0702,32.75 0.3642,0.004 0.9717,-1.90596 1.35,-4.24346 1.2912,-7.97765 13.4457,-65.87275 14.0267,-66.81276 0.6902,-1.11673 24.1326,-1.27796 24.8169,-0.17068 0.2606,0.4216 -5.9004,24.1591 -13.691,52.75 l -14.1647,51.983543 -12.2695,0.28094 c -9.262,0.21207 -12.3886,-0.0331 -12.7552,-1 z"
         style="fill:#262524"
         inkscape:connector-curvature="0" />
      <path
         id="path4196"
         d="m 2077.614,-74.854947 c -0.2702,-0.70552 -0.3743,-24.45784 -0.2313,-52.782843 l 0.2601,-51.5 11.5,0 11.5,0 0,52.5 0,52.500003 -11.2687,0.28293 c -8.4575,0.21234 -11.3914,-0.0371 -11.7601,-1 z"
         style="fill:#262524"
         inkscape:connector-curvature="0" />
      <path
         id="path4194"
         d="m 2209.6013,-74.887847 c -0.2632,-0.6875 -0.3616,-24.425 -0.2186,-52.750003 l 0.2601,-51.5 26,0 26,0 0.2847,10.22224 c 0.3375,12.12021 1.6863,11.16502 -16.2847,11.53243 l -12,0.24533 0,9 0,9 9,0.2498 c 14.5785,0.40464 13.6177,-0.42916 13.2847,11.52796 l -0.2847,10.2223 -11,0.5 -11,0.5 0,10 0,10.000003 14.2891,0.5 c 11.2196,0.39259 14.4923,0.82223 15.2347,2 1.0446,1.65711 1.3304,15.91348 0.3692,18.41821 -0.5323,1.38716 -3.8583,1.58179 -27.0314,1.58179 -20.2175,0 -26.5368,-0.29361 -26.9031,-1.25 z"
         style="fill:#262524"
         inkscape:connector-curvature="0" />
      <path
         id="path4192"
         d="m 1677.6895,-483.06836 c -12.4195,-0.15666 -25.2054,2.0285 -36.4903,6.31641 -20.5041,7.79092 -40.222,28.14544 -49.9844,51.5957 -7.9239,19.03417 -11.2887,37.9477 -11.3027,63.51758 -0.037,69.90615 33.0763,117.42528 85.7031,122.98633 3.8653,0.40845 7.7677,0.8042 8.6719,0.8789 4.9534,0.40909 23.1517,-2.30092 30.2031,-4.49804 33.8509,-10.54742 56.8691,-40.1246 65.8711,-84.63868 1.9796,-9.7892 2.2737,-14.23945 2.2637,-34.72851 -0.01,-18.45717 -0.3888,-25.4313 -1.7852,-32.5 -10.468,-52.98879 -39.9987,-83.84991 -84.6328,-88.44531 -2.8041,-0.28871 -5.6515,-0.44823 -8.5175,-0.48438 z m -0.584,52.4082 c 3.7116,0.0511 7.4098,0.57266 10.6992,1.59571 7.4142,2.30587 16.6543,11.10741 20.7148,19.73047 11.7105,24.86903 11.2895,73.65352 -0.8418,97.58203 -4.4344,8.74656 -9.1465,14.0387 -15.6757,17.60351 -4.6187,2.52172 -6.6023,2.9646 -14.3594,3.20508 -10.0842,0.31262 -13.9743,-0.75642 -20.9278,-5.75 -11.7054,-8.40618 -18.4704,-25.36591 -20.7539,-52.02734 -0.8911,-10.41047 -0.9006,-16.85868 -0.035,-26.58985 2.4005,-26.99036 10.5274,-44.27975 24.3496,-51.80273 4.4221,-2.40678 10.644,-3.63198 16.8301,-3.54688 z"
         style="fill:#262524"
         inkscape:connector-curvature="0" />
      <path
         id="path4188"
         d="m 1444.1328,-482.52734 c -16.5573,-0.0371 -22.708,0.24126 -23.5351,0.92773 -1.2569,1.04312 -1.4551,16.98203 -1.4551,117.51367 0,104.39951 0.1617,116.4664 1.5722,117.87696 1.3421,1.34213 5.1079,1.57031 25.8086,1.57031 17.824,0 24.6839,-0.33076 25.9239,-1.25 1.5178,-1.12514 1.712,-4.79593 1.9414,-36.75 l 0.2539,-35.5 17,-0.59375 c 13.7117,-0.48015 18.354,-1.03059 24,-2.83985 23.8075,-7.62912 40.301,-26.02869 47.7129,-53.22851 1.9581,-7.18594 2.2715,-10.75338 2.2715,-25.83789 0,-15.1391 -0.31,-18.63618 -2.2969,-25.93164 -7.5043,-27.55449 -24.3901,-45.80958 -49.1875,-53.17383 -7.121,-2.11478 -9.6362,-2.2481 -49.7949,-2.64453 -8.0198,-0.0792 -14.6958,-0.12632 -20.2149,-0.13867 z m 34.1641,47.75781 c 1.5753,-0.11871 3.739,0.31475 6.709,0.63281 10.5627,1.13117 17.8377,6.06374 21.9785,14.89844 8.4554,18.04079 2.9331,42.51248 -11.2461,49.83203 -4.2289,2.18308 -19.3116,3.77866 -20.8457,2.20508 -0.4125,-0.42311 -0.75,-15.51389 -0.75,-33.53516 0,-28.34668 -0.5717,-33.67707 4.1543,-34.0332 z"
         style="fill:#262524"
         inkscape:connector-curvature="0" />
      <path
         id="path4184"
         d="m 1815.8501,-245.88779 c -1.3159,-0.98207 -5.988,-26.16808 -21.7972,-117.50249 -11.0672,-63.93887 -19.8636,-116.92637 -19.5475,-117.75 0.4892,-1.27485 4.2593,-1.49523 25.356,-1.4822 13.6298,0.008 25.3234,0.35979 25.9858,0.78082 1.107,0.70364 20.0497,140.1545 21.8058,160.52825 0.3709,4.3034 0.8801,7.61867 1.1315,7.36725 0.2514,-0.25142 0.8667,-4.44739 1.3672,-9.32438 1.7674,-17.22117 22.3249,-156.8846 23.2737,-158.11725 1.4022,-1.8215 48.0194,-1.79593 49.5325,0.0272 0.5829,0.70244 6.0636,36.81494 12.1793,80.25 6.1156,43.43506 11.4666,80.77283 11.8911,82.97283 l 0.7718,4 0.5888,-4.5 c 0.3239,-2.475 5.1187,-40.01894 10.6552,-83.43098 6.7681,-53.06948 10.4812,-79.19431 11.3325,-79.73469 2.0165,-1.27994 50.5243,-1.03475 51.3241,0.25943 1.0272,1.66204 -39.7538,233.95926 -41.3536,235.55911 -1.8859,1.88589 -56.9946,1.9759 -59.467,0.0971 -1.2856,-0.97691 -3.7215,-14.6859 -11.15,-62.75 -5.2278,-33.825 -9.812,-64.55015 -10.1872,-68.27811 -0.3751,-3.72796 -1.0355,-6.99654 -1.4674,-7.2635 -0.432,-0.26697 -1.0522,2.10818 -1.3783,5.27811 -1.9666,19.1165 -19.2372,131.79425 -20.3758,132.93713 -1.8605,1.86747 -57.9763,1.93834 -60.4713,0.0764 z"
         style="fill:#262524"
         inkscape:connector-curvature="0" />
      <path
         id="path4182"
         d="m 2039.3887,-245.46467 c -0.9963,-0.63255 -1.2019,-25.04449 -1,-118.73469 l 0.2541,-117.93843 57,-0.27645 c 31.35,-0.15204 58.0125,-0.031 59.25,0.26906 l 2.25,0.54549 0,22.85851 c 0,17.84103 -0.293,23.10165 -1.3348,23.96626 -0.8969,0.7444 -11.4752,1.19457 -32.25,1.37244 l -30.9152,0.26469 -0.2707,20.87264 c -0.1887,14.5525 0.075,21.2897 0.8725,22.25 0.9137,1.10094 6.0391,1.37736 25.5387,1.37736 l 24.3957,0 -0.2681,23.75 -0.2681,23.75 -24.7353,0.26744 c -24.6621,0.26664 -24.737,0.27405 -25.283,2.5 -0.3012,1.22791 -0.4203,11.68256 -0.2647,23.23256 l 0.283,21 33.5,0.53385 c 18.425,0.29362 33.6125,0.63112 33.75,0.75 0.1375,0.11888 0.25,10.47615 0.25,23.01615 0,16.4 -0.3368,23.13684 -1.2,24 -0.9064,0.90636 -15.5271,1.19625 -59.75,1.18469 -32.2025,-0.008 -59.1144,-0.37363 -59.8041,-0.81157 z"
         style="fill:#262524"
         inkscape:connector-curvature="0" />
      <path
         id="path4180"
         d="m 2184.6426,-482.13867 -0.2539,117.93945 c -0.2019,93.6902 0,118.10183 1,118.73438 0.6897,0.43794 12.3356,0.8045 25.8808,0.8125 19.3617,0.012 24.8652,-0.27221 25.7383,-1.32422 0.7618,-0.91791 1.1935,-13.55785 1.3731,-40.25 l 0.2617,-38.91211 5.5898,-0.29492 c 3.6826,-0.19443 5.9478,0.14681 6.6387,1 0.5769,0.71232 7.9185,18.32092 16.3144,39.1289 8.3958,20.80799 15.904,38.47049 16.6836,39.25 1.1543,1.15433 6.4601,1.41485 28.5957,1.40235 14.9482,-0.008 27.8236,-0.42415 28.6133,-0.92383 1.1671,-0.73856 -2.0763,-8.54784 -17.3359,-41.73633 -10.3242,-22.45439 -20.5344,-43.92585 -22.6895,-47.71484 l -3.9179,-6.88868 6.875,-6.61132 c 11.0767,-10.65218 18.4211,-23.49855 22.7363,-39.77344 2.5255,-9.52479 2.5907,-32.22952 0.1191,-41.33789 -7.0695,-26.05184 -24.3941,-43.46557 -50.0566,-50.31836 -7.777,-2.07673 -10.1689,-2.18164 -50.166,-2.18164 l -42,0 z m 59.7812,47.62305 c 4.6418,0.0787 11.4109,1.14031 14.6758,2.50195 19.2681,8.03579 20.1318,45.08076 1.2969,55.62695 -4.1263,2.31045 -6.901,3.04821 -13,3.45508 -4.2646,0.28451 -8.0914,0.16631 -8.5039,-0.26172 -0.4125,-0.42804 -0.75,-14.19395 -0.75,-30.5918 l 0,-29.81445 2.5566,-0.64258 c 0.8659,-0.21732 2.1774,-0.29967 3.7246,-0.27343 z"
         style="fill:#262524"
         inkscape:connector-curvature="0" />
      <path
         id="path4176"
         d="m 1084.604,-247.88779 c -0.2618,-0.6875 -0.3602,-53.225 -0.2186,-116.75 l 0.2574,-115.5 57.75,-0.25812 57.75,-0.25813 0,22.49408 0,22.49408 -31.75,0.26404 -31.75,0.26405 0,23.5 0,23.5 25,0.5 25,0.5 0,22.5 0,22.5 -25,0.5 -25,0.5 0,24.5 0,24.5 33.25,0.26348 33.25,0.26348 0,22.48652 0,22.48652 -59.0314,0 c -46.3046,0 -59.134,-0.26949 -59.5074,-1.25 z"
         style="opacity:1;fill:#f66e27;fill-opacity:1"
         inkscape:connector-curvature="0" />
      <path
         id="path4174"
         d="m 1230.1428,-363.63779 0,-117 27.4281,0 27.4282,0 1.948,5.25 c 30.1588,81.27748 43.2479,117.79456 46.149,128.75 2.5613,9.67249 3.9962,13.5 5.0608,13.5 1.1792,0 1.4305,-1.23834 1.2178,-6 -0.1475,-3.3 -0.5158,-36.49572 -0.8185,-73.76826 l -0.5503,-67.76826 23.8185,0.26826 23.8184,0.26826 0,116.5 0,116.5 -27.1369,0.26587 c -25.153,0.24643 -27.1874,0.13676 -27.8271,-1.5 -0.3796,-0.97123 -9.8382,-26.29087 -21.0192,-56.26587 -20.1208,-53.9415 -24.7712,-67.44619 -28.2337,-81.98958 -1.3431,-5.64145 -2.238,-7.57638 -3.6265,-7.84132 -1.6864,-0.32176 -1.7894,0.18862 -1.2095,5.98958 0.3487,3.48773 0.8715,36.82882 1.1618,74.09132 l 0.5278,67.75 -24.0683,0 -24.0684,0 0,-117 z"
         style="fill:#f66e27;fill-opacity:1"
         inkscape:connector-curvature="0" />
      <path
         id="path4172"
         d="m 752.11328,-497.81836 c -5.63892,0.0593 -11.12685,0.59105 -15.44336,1.60938 -29.1922,6.88683 -50.18075,32.61467 -55.53125,68.06836 -1.6526,10.95004 -1.43346,33.16346 0.43164,43.62304 6.485,36.36879 26.89577,60.49653 57.07227,67.46485 8.8013,2.03237 27.0492,1.22999 36,-1.58204 11.642,-3.65749 18.3092,-7.77417 27.5,-16.98437 9.8597,-9.88049 15.48124,-19.09719 19.83594,-32.51953 4.4378,-13.67797 5.64604,-22.27436 5.62304,-40 -0.0226,-17.78033 -1.50947,-27.10255 -6.51367,-40.81445 -8.7712,-24.03346 -26.37423,-40.96169 -48.64453,-46.7793 -5.57989,-1.45762 -13.08003,-2.16221 -20.33008,-2.08594 z m 3.8457,25.31445 c 9.68339,0.0941 16.22616,1.97427 23.43555,6.52539 10.4971,6.62649 20.43035,21.997 24.15235,37.375 5.8882,24.32719 3.51509,54.07885 -5.84961,73.34375 -6.5132,13.39904 -15.55099,22.28598 -27.55469,27.09375 -5.256,2.10516 -22.3256,2.99431 -28.375,1.47852 -2.1316,-0.53411 -6.1818,-2.12939 -9,-3.54492 -20.1984,-10.14505 -31.625,-35.41951 -31.625,-69.95117 0,-34.33508 11.67418,-58.85574 32.70508,-68.69727 5.9715,-2.79443 7.95161,-3.1903 17.75781,-3.55664 1.52261,-0.0569 2.97017,-0.0799 4.35351,-0.0664 z"
         style="fill:#f66e27;fill-opacity:1"
         inkscape:connector-curvature="0" />
    </g>
  </g>
</svg>
