<?xml version="1.0" encoding="utf-8"?>
<!-- Generator: Adobe Illustrator 15.0.0, SVG Export Plug-In . SVG Version: 6.00 Build 0)  -->
<!DOCTYPE svg PUBLIC "-//W3C//DTD SVG 1.1//EN" "http://www.w3.org/Graphics/SVG/1.1/DTD/svg11.dtd">
<svg version="1.1" id="Layer_1" xmlns="http://www.w3.org/2000/svg" xmlns:xlink="http://www.w3.org/1999/xlink" x="0px" y="0px"
	 width="246px" height="41px" viewBox="0 0 246 41" enable-background="new 0 0 246 41" xml:space="preserve">
<g>
	<rect x="1.439" y="1.348" fill="#004B93" width="204.093" height="38.3"/>
	<g>
		<g>
			<path fill="#FFFFFF" d="M23.443,29.275H12.932V11.571h10.511v3.841h-5.727v2.784h5.304v3.84h-5.304v3.343h5.727V29.275z"/>
			<path fill="#FFFFFF" d="M35.05,22.836v6.439h-4.785V11.571h5.803c4.81,0,7.215,1.743,7.215,5.23c0,2.053-1.001,3.639-3.003,4.761
				l5.161,7.713h-5.426l-3.757-6.439H35.05z M35.05,19.238h0.897c1.669,0,2.505-0.739,2.505-2.218c0-1.22-0.819-1.827-2.458-1.827
				H35.05V19.238z"/>
			<path fill="#FFFFFF" d="M61.636,29.275l-0.874-3.315h-5.75l-0.897,3.315h-5.253l5.774-17.778h6.383l5.849,17.778H61.636z
				 M59.773,22.036l-0.763-2.91c-0.179-0.645-0.395-1.481-0.651-2.506s-0.422-1.76-0.502-2.204
				c-0.074,0.414-0.218,1.092-0.428,2.036c-0.216,0.944-0.691,2.805-1.423,5.584H59.773z"/>
			<path fill="#FFFFFF" d="M87.531,20.052c0,2.951-0.811,5.23-2.441,6.828c-1.626,1.595-3.912,2.395-6.858,2.395h-5.728V11.571
				h6.127c2.843,0,5.034,0.726,6.579,2.181C86.76,15.207,87.531,17.302,87.531,20.052z M82.564,20.219
				c0-1.623-0.32-2.826-0.962-3.609c-0.642-0.782-1.619-1.176-2.924-1.176h-1.395v9.917h1.07c1.45,0,2.52-0.422,3.199-1.265
				C82.226,23.244,82.564,21.956,82.564,20.219z"/>
			<path fill="#FFFFFF" d="M94.427,29.275V11.571h4.807v17.705H94.427z"/>
			<path fill="#FFFFFF" d="M114.667,15.24c-1.139,0-2.03,0.469-2.664,1.399c-0.638,0.934-0.958,2.219-0.958,3.859
				c0,3.407,1.297,5.11,3.887,5.11c0.782,0,1.541-0.106,2.278-0.325c0.732-0.219,1.47-0.48,2.213-0.786v4.045
				c-1.474,0.651-3.147,0.981-5.012,0.981c-2.675,0-4.722-0.777-6.146-2.33c-1.425-1.548-2.139-3.789-2.139-6.718
				c0-1.833,0.344-3.443,1.036-4.835c0.688-1.387,1.683-2.453,2.98-3.204c1.293-0.744,2.821-1.12,4.571-1.12
				c1.915,0,3.742,0.417,5.486,1.25l-1.465,3.766c-0.655-0.311-1.307-0.564-1.962-0.776C116.117,15.348,115.416,15.24,114.667,15.24
				z"/>
			<path fill="#FFFFFF" d="M143.167,20.4c0,2.98-0.734,5.245-2.193,6.792c-1.463,1.553-3.601,2.33-6.419,2.33
				c-2.779,0-4.907-0.78-6.388-2.339c-1.482-1.559-2.223-3.826-2.223-6.807c0-2.946,0.737-5.2,2.208-6.75
				c1.476-1.556,3.616-2.334,6.425-2.334c2.82,0,4.956,0.774,6.407,2.316C142.441,15.148,143.167,17.414,143.167,20.4z
				 M130.982,20.4c0,3.423,1.189,5.138,3.572,5.138c1.212,0,2.109-0.417,2.695-1.25c0.587-0.829,0.879-2.126,0.879-3.887
				c0-1.767-0.299-3.076-0.891-3.919c-0.593-0.844-1.48-1.265-2.661-1.265C132.182,15.216,130.982,16.942,130.982,20.4z"/>
		</g>
	</g>
	<path d="M0,0v41h245.996V0H0z M1.439,1.348h204.093v38.3H1.439V1.348z"/>
	<g>
		<g>
			<path fill="#FFFFFF" d="M222.948,14.156v-1.527c0,0,19.405-0.613,19.405,10.236c0,10.848-19.251,10.238-19.251,10.238v-1.376
				c0,0,14.973,0.152,16.809-8.099H223.71v-1.832h16.295C240.005,21.796,238.839,14.31,222.948,14.156"/>
			<path fill="#FFFFFF" d="M211.441,19.097h18.336v-1.734h-18.336c2.646-7.74,18.838-7.631,18.838-7.631V7.89
				c-6.413,0-11.101,1.224-11.101,1.224c-2.353,0.614-4.783,1.904-6.797,3.257c-1.698,1.144-3.222,2.528-3.786,4.569
				c-0.06,0.193-0.08,0.383-0.084,0.578h-0.026c-0.439,3.889,3.489,6.481,3.843,6.705c0.131,0.098,0.268,0.187,0.398,0.273
				c3.562,2.165,7.221,3.115,11.318,3.607c0.376,0.044,6.446,0.533,6.446,0.264v-1.223C213.275,26.94,211.441,19.097,211.441,19.097
				"/>
		</g>
	</g>
</g>
</svg>
