<?xml version="1.0" encoding="UTF-8" standalone="no"?>
<!-- Created with Inkscape (http://www.inkscape.org/) -->

<svg
   xmlns:dc="http://purl.org/dc/elements/1.1/"
   xmlns:cc="http://creativecommons.org/ns#"
   xmlns:rdf="http://www.w3.org/1999/02/22-rdf-syntax-ns#"
   xmlns:svg="http://www.w3.org/2000/svg"
   xmlns="http://www.w3.org/2000/svg"
   xmlns:sodipodi="http://sodipodi.sourceforge.net/DTD/sodipodi-0.dtd"
   xmlns:inkscape="http://www.inkscape.org/namespaces/inkscape"
   id="svg2"
   version="1.1"
   inkscape:version="0.91 r13725"
   width="100"
   height="58"
   viewBox="0 0 100 58"
   sodipodi:docname="templewood.svg">
  <sodipodi:namedview
     pagecolor="#ffffff"
     bordercolor="#666666"
     borderopacity="1"
     objecttolerance="10"
     gridtolerance="10"
     guidetolerance="10"
     inkscape:pageopacity="0"
     inkscape:pageshadow="2"
     inkscape:window-width="1871"
     inkscape:window-height="1056"
     id="namedview4"
     showgrid="false"
     borderlayer="true"
     inkscape:zoom="4.4528302"
     inkscape:cx="48.030209"
     inkscape:cy="29.345443"
     inkscape:window-x="1969"
     inkscape:window-y="24"
     inkscape:window-maximized="1"
     inkscape:current-layer="svg2" />
  <metadata
     id="metadata8">
    <rdf:RDF>
      <cc:Work
         rdf:about="">
        <dc:format>image/svg+xml</dc:format>
        <dc:type
           rdf:resource="http://purl.org/dc/dcmitype/StillImage" />
        <dc:title></dc:title>
      </cc:Work>
    </rdf:RDF>
  </metadata>
  <defs
     id="defs6">
    <filter
       inkscape:label="filter1"
       id="filter4545"
       style="color-interpolation-filters:sRGB" />
  </defs>
  <path
     style="fill:#ffffff;fill-opacity:1"
     d="m 32.504689,51.369902 0,-6.216662 0.621654,0 c 0.619081,0 0.621672,0.0032 0.621672,0.805459 l 0,0.805475 0.55922,-0.636921 c 0.85048,-0.968641 1.461771,-1.21378 2.993156,-1.200326 2.08776,0.01838 3.214064,0.643246 4.029442,2.235539 0.388908,0.759485 0.474281,1.171276 0.485678,2.342434 0.01163,1.22009 -0.058,1.567149 -0.493847,2.455211 -0.323832,0.659721 -0.762614,1.218913 -1.211733,1.544266 -0.829398,0.600822 -2.390513,0.969057 -3.41429,0.80537 -0.90153,-0.144127 -2.085459,-0.822308 -2.570429,-1.472392 l -0.365946,-0.490546 -0.0053,2.619885 -0.0053,2.619887 -0.621662,0 -0.62168,0 0,-6.216679 z m 6.502977,1.408675 c 1.285996,-0.794795 1.879416,-2.346559 1.531557,-4.004952 -0.384225,-1.831825 -1.497024,-2.790106 -3.238832,-2.789106 -2.300207,0.0012 -3.691187,1.569995 -3.517781,3.967193 0.116657,1.611754 1.080923,2.848921 2.500933,3.208514 0.831794,0.210623 2.039571,0.04139 2.724123,-0.381649 z M 9.3119232,54.233265 C 7.8459201,53.853453 6.7437989,52.830175 6.2472645,51.387804 5.8829782,50.329619 5.9877111,48.378272 6.4627283,47.373476 c 0.8180831,-1.730484 2.0530003,-2.452471 4.1947827,-2.452471 2.705779,0 4.341009,1.427894 4.573662,3.993777 l 0.0937,1.034164 -4.109909,0 c -2.2604556,0 -4.1099134,0.02556 -4.1099134,0.05664 0,0.03109 0.1207572,0.463195 0.2683442,0.960184 0.4709359,1.585807 2.040369,2.528062 3.8073532,2.285877 1.141223,-0.156417 1.999432,-0.657812 2.407402,-1.406452 0.298701,-0.548145 0.449019,-0.651958 0.94448,-0.652372 0.529475,-3.47e-4 0.576637,0.04004 0.465145,0.399162 -0.287073,0.924619 -1.256438,1.929822 -2.268988,2.352892 -0.798232,0.333533 -2.642123,0.489167 -3.4169409,0.28844 z M 13.950383,48.39478 c -0.352635,-1.430495 -1.70045,-2.421774 -3.292872,-2.421774 -1.188737,0 -2.4712501,0.680946 -2.9721994,1.578097 -0.7624097,1.36537 -0.8370355,1.33214 2.9914574,1.33214 l 3.394022,0 z m 34.496196,5.812953 c -1.013037,-0.25535 -2.056339,-1.033847 -2.577645,-1.923388 -0.386099,-0.65884 -0.482609,-1.078553 -0.544202,-2.367014 -0.108516,-2.269142 0.537468,-3.630104 2.13592,-4.500083 0.779882,-0.424476 1.112312,-0.494889 2.345749,-0.49692 2.812918,-0.0045 4.44214,1.386334 4.678628,3.994454 l 0.0937,1.034164 -4.124024,0 -4.124022,0 0.124224,0.577277 c 0.405381,1.882446 2.037594,2.994277 3.976525,2.708725 1.215183,-0.178957 1.939148,-0.592092 2.374803,-1.355199 0.327242,-0.57317 0.484964,-0.684953 0.968187,-0.686096 0.677353,-0.0017 0.676877,-0.0031 0.238293,0.849394 -0.439067,0.853601 -1.177217,1.545553 -2.027743,1.900831 -0.843034,0.352155 -2.65288,0.487107 -3.53857,0.263855 z m 4.839556,-5.534851 c 0,-0.115704 -0.165525,-0.55228 -0.367846,-0.970204 -1.221507,-2.523302 -5.499461,-2.164387 -6.32663,0.5308 l -0.199429,0.649765 3.446949,0 c 2.537118,0 3.446956,-0.0556 3.446956,-0.210361 z m 19.893346,5.560463 c -2.158593,-0.474973 -3.550398,-2.293763 -3.550398,-4.639633 0,-1.886789 0.889197,-3.444688 2.383354,-4.175713 0.828523,-0.405347 1.234926,-0.489133 2.372704,-0.489133 2.954015,0 4.588769,1.466655 4.791407,4.29871 0.150692,2.106347 -0.724569,3.839297 -2.332202,4.617555 -0.853371,0.413109 -2.674821,0.606056 -3.664865,0.388214 z M 75.5967,53.061469 c 1.50711,-0.447574 2.381964,-1.739412 2.374602,-3.506462 -0.0099,-2.450438 -1.881277,-3.963047 -4.330642,-3.500911 -1.720833,0.324656 -2.762426,1.659299 -2.762426,3.539616 0,1.73259 0.854925,3.005709 2.326688,3.464834 1.013915,0.316291 1.335195,0.316694 2.391778,0.0028 z m 8.012156,1.144956 c -0.997939,-0.251133 -1.608692,-0.613369 -2.232892,-1.324285 -0.81897,-0.932756 -1.1212,-1.785721 -1.133747,-3.199616 -0.01861,-2.093605 0.958108,-3.756092 2.617531,-4.455506 0.960862,-0.404982 3.302893,-0.404736 4.262862,3.67e-4 1.664084,0.702351 2.572007,2.243649 2.572007,4.366263 0,2.108159 -0.912146,3.669811 -2.540853,4.350166 -0.845062,0.353005 -2.653285,0.48692 -3.544908,0.262545 z m 3.293546,-1.452948 c 0.994585,-0.551095 1.635246,-1.789039 1.635246,-3.159765 0,-2.20232 -1.430454,-3.620399 -3.631054,-3.599683 -2.129461,0.02005 -3.469607,1.411971 -3.4658,3.599683 0.0031,1.801355 0.87687,3.0311 2.531554,3.563045 0.741577,0.238407 2.112562,0.0497 2.930054,-0.40328 z m 7.147354,1.480253 c -1.958169,-0.514881 -3.104208,-1.996548 -3.245477,-4.19597 -0.09869,-1.536105 0.1531,-2.513534 0.899462,-3.492074 0.712238,-0.933807 1.386415,-1.337552 2.625923,-1.572637 1.487307,-0.282061 2.665446,0.02998 3.640507,0.964278 l 0.7865,0.753581 0,-2.456221 0,-2.456217 0.621654,0 0.621675,0 0,6.127866 0,6.127867 -0.621675,0 c -0.609531,0 -0.621654,-0.01432 -0.621654,-0.729275 l 0,-0.729256 -0.490677,0.52526 c -0.269876,0.288897 -0.74743,0.658042 -1.061253,0.820341 -0.664947,0.343859 -2.386977,0.514398 -3.154985,0.312457 z m 2.203354,-1.082794 c 1.619723,-0.46452 2.559815,-1.72725 2.5799,-3.465293 0.03031,-2.62392 -2.045062,-4.273082 -4.470892,-3.552695 -1.501816,0.445991 -2.354985,1.737269 -2.354985,3.564245 0,1.118574 0.629446,2.528104 1.335585,2.990771 0.849046,0.556329 1.9656,0.733934 2.910392,0.462972 z M 2.7211764,53.956051 c -0.803286,-0.355003 -0.9424718,-1.057399 -0.943633,-4.76199 l -0.00135,-3.152726 -0.8881009,0 c -0.82888526,0 -0.88809385,-0.02961 -0.88809385,-0.444048 0,-0.414456 0.05924172,-0.444047 0.88809385,-0.444047 l 0.8881009,0 0,-1.420955 0,-1.420955 0.6216665,0 0.6216643,0 0,1.420955 0,1.420955 1.2433395,0 c 1.2016384,0 1.243331,0.01452 1.243331,0.435933 0,0.414579 -0.058708,0.438496 -1.1989264,0.488446 l -1.1989348,0.05248 -0.048509,3.148648 c -0.046216,3.001869 -0.030972,3.166158 0.3268984,3.524038 0.3027968,0.302803 0.5455426,0.363695 1.2554302,0.31492 l 0.8800508,-0.06045 -0.052419,0.532861 c -0.051345,0.521694 -0.074719,0.533707 -1.1181358,0.574257 -0.6194384,0.02399 -1.30237,-0.06313 -1.6308544,-0.208366 z m 13.6201446,-4.362339 0,-4.440472 0.532864,0 c 0.50755,0 0.53286,0.03544 0.53286,0.746516 l 0,0.746533 0.666069,-0.636721 c 0.957567,-0.915343 1.365054,-1.074057 2.779761,-1.082629 1.438782,-0.0085 2.19047,0.291417 2.802156,1.11876 l 0.392858,0.531356 0.542798,-0.514404 c 0.886646,-0.84028 1.658768,-1.139274 2.942092,-1.139274 1.611806,0 2.696253,0.494182 3.184465,1.451155 0.333209,0.653153 0.366487,1.033387 0.366487,4.189014 l 0,3.470657 -0.621673,0 -0.62167,0 0,-3.205969 c 0,-2.518263 -0.05786,-3.317738 -0.26943,-3.726994 -0.818946,-1.583675 -4.085115,-1.453953 -4.925661,0.195608 -0.260065,0.510404 -0.310587,1.107599 -0.310836,3.673421 l -3.46e-4,3.063934 -0.621679,0 -0.621652,0 0,-3.205969 c 0,-3.576433 -0.109777,-4.026134 -1.10897,-4.542838 -0.716623,-0.370585 -2.197639,-0.380765 -2.891623,-0.01989 -1.402196,0.729145 -1.680891,1.582144 -1.682232,5.14881 l -0.0013,2.619884 -0.532858,0 -0.532865,0 0,-4.44049 z m 26.642894,-1.687376 0,-6.127866 0.621672,0 0.621672,0 0,6.127866 0,6.127867 -0.621672,0 -0.621672,0 z m 15.006227,5.905843 c -0.04404,-0.12208 -0.791999,-2.12034 -1.661876,-4.440491 l -1.581648,-4.218448 0.672828,0 0.672834,0 1.304593,3.538443 c 0.717541,1.946144 1.34389,3.49917 1.391893,3.451164 0.04801,-0.04805 0.617352,-1.620321 1.265229,-3.494046 l 1.177949,-3.406765 0.705625,-0.05316 0.705606,-0.05318 1.22718,3.472089 c 0.674938,1.909656 1.273781,3.47223 1.330783,3.472419 0.05708,1.72e-4 0.68569,-1.558303 1.397116,-3.463269 l 1.293456,-3.463566 0.692306,0 0.692324,0 -0.23777,0.577257 c -0.130753,0.31749 -0.907787,2.319491 -1.7267,4.448892 l -1.48894,3.871624 -0.700679,-0.05276 -0.700696,-0.05275 -1.196127,-3.339903 c -0.657868,-1.836963 -1.226432,-3.370216 -1.263474,-3.407253 -0.03709,-0.03709 -0.614928,1.485904 -1.284198,3.384302 l -1.21687,3.451652 -0.695243,0 c -0.394973,0 -0.729902,-0.09596 -0.775501,-0.222023 z M 44.20383,34.427514 C 43.355295,34.124345 40.504835,32.148186 38.254863,30.303242 34.858579,27.518325 33.575045,25.92967 29.672179,19.680234 28.846988,18.358883 28.147673,17.301953 28.11813,17.331493 c -0.02955,0.02954 0.675275,2.484915 1.566252,5.456394 1.424242,4.749932 1.779601,5.721547 2.941237,8.041579 0.726681,1.451369 1.279706,2.680403 1.228946,2.731181 -0.270804,0.270806 -3.761706,-3.280966 -5.30711,-5.399631 -0.810238,-1.110797 -2.054847,-3.722089 -2.691168,-5.646234 -0.453059,-1.370027 -0.977553,-3.923807 -1.000488,-4.871391 l -0.01107,-0.465182 -0.197765,0.444047 c -0.350021,0.785928 -0.273394,5.55869 0.116294,7.238425 0.186997,0.806189 0.279745,1.525558 0.206104,1.598582 -0.207201,0.20546 -0.931511,-0.789393 -1.715242,-2.355905 -0.98777,-1.974367 -1.281604,-3.790994 -1.201693,-7.429581 l 0.06174,-2.813466 -0.424567,0.948468 c -0.233506,0.52166 -0.60959,1.507967 -0.835734,2.191805 l -0.411188,1.243327 -0.0046,-1.154515 c -0.006,-1.515273 0.39315,-3.348972 1.022922,-4.694749 0.600432,-1.283112 2.52658,-3.6235105 4.897014,-5.9502002 0.938661,-0.921347 1.706658,-1.736787 1.706658,-1.81209 0,-0.07529 0.699379,-0.743135 1.554177,-1.48407 1.699555,-1.473185 3.682697,-2.58789997 4.553156,-2.55930297 l 0.553365,0.01818 -0.545174,0.13044 C 32.651769,1.1032928 31.881023,2.0738458 31.914719,3.5903258 c 0.0404,1.820455 0.96876,3.762592 3.268656,6.8383412 1.331229,1.780305 5.043514,5.880902 6.649924,7.345535 1.021268,0.93113 1.037802,0.961077 0.781919,1.41696 -0.726314,1.294029 -2.436523,1.640908 -4.000219,0.811391 -1.13126,-0.600118 -3.01912,-2.148683 -4.165649,-3.416959 -0.600091,-0.663825 -0.770965,-0.794536 -0.502384,-0.384295 0.808715,1.235238 3.973121,5.458078 5.457114,7.282381 1.985499,2.440848 7.876014,8.334926 8.953516,8.958958 0.904982,0.524115 1.053405,0.920508 0.524038,1.399571 -0.847965,0.767395 -3.306643,1.075066 -4.677409,0.585301 z m 9.005269,-0.03478 c -1.564047,-0.572864 -1.734043,-1.235551 -0.50023,-1.950113 1.077505,-0.624031 6.968023,-6.518109 8.953521,-8.958956 1.483984,-1.824304 4.64841,-6.047144 5.457126,-7.282382 0.268564,-0.410239 0.09775,-0.27953 -0.502396,0.384293 -1.14652,1.268278 -3.03438,2.816843 -4.165657,3.416961 -1.557389,0.826179 -3.27388,0.482644 -3.993399,-0.799253 -0.249265,-0.444116 -0.222095,-0.484778 1.3019,-1.947875 1.904436,-1.828332 4.805423,-5.058618 6.186077,-6.888257 3.928847,-5.2064952 4.282651,-8.8298572 0.940284,-9.62957117 l -0.545175,-0.13044 0.553407,-0.01818 c 0.870435,-0.0286 2.853582,1.08611897 4.553147,2.55930297 0.854783,0.740936 1.554169,1.408767 1.554169,1.48407 0,0.07529 0.767998,0.890744 1.70667,1.81209 2.370413,2.3266905 4.296567,4.6670882 4.897013,5.9502012 0.629754,1.345777 1.029292,3.179475 1.0229,4.694748 l -0.0046,1.154515 -0.411184,-1.24332 C 79.986448,16.316747 79.610356,15.33044 79.376864,14.808781 l -0.42457,-0.94847 0.06177,2.813467 c 0.07991,3.638587 -0.213924,5.455214 -1.201693,7.429581 -0.783707,1.566512 -1.50804,2.561365 -1.715237,2.355905 -0.07357,-0.07296 0.01912,-0.792394 0.206097,-1.598582 0.389616,-1.679735 0.466242,-6.452497 0.116293,-7.238425 l -0.19776,-0.444046 -0.01107,0.557627 c -0.05338,2.646625 -1.974058,8.070425 -3.691671,10.425179 -1.545388,2.118663 -5.036283,5.670437 -5.307083,5.399631 -0.05072,-0.05075 0.502244,-1.279811 1.228946,-2.731183 1.161616,-2.32003 1.516993,-3.291645 2.941211,-8.041577 0.890976,-2.971479 1.595794,-5.42687 1.566258,-5.456394 -0.02955,-0.02954 -0.728862,1.02739 -1.554054,2.348741 -3.902875,6.249432 -5.186388,7.838088 -8.582685,10.623004 -2.249963,1.844944 -5.100436,3.821104 -5.94896,4.124271 -0.851437,0.304206 -2.777723,0.285886 -3.653151,-0.03474 z M 45.217143,15.744557 c -0.397884,-0.397882 -0.354904,-1.830977 0.09162,-3.055683 0.606199,-1.662573 0.589723,-1.777053 -0.108039,-0.750446 -0.893527,1.314679 -1.863594,2.309049 -2.252634,2.309049 -0.503952,0 -1.029674,-0.649507 -1.029674,-1.272131 0,-0.308912 0.211063,-0.92836 0.469011,-1.376551 l 0.469023,-0.814891 -0.51341,0.470344 c -0.631487,0.578523 -1.675077,1.215482 -1.992884,1.216374 -0.308317,8.46e-4 -0.141821,-0.832767 0.414007,-2.073028 l 0.41196,-0.9191667 -0.796964,0.6083337 c -0.438319,0.334583 -0.999543,0.608333 -1.247166,0.608333 -0.422571,0 -0.443049,-0.04091 -0.333599,-0.666073 0.06416,-0.3663392 0.314856,-1.0570222 0.557153,-1.5348522 0.242282,-0.4778315 0.41467,-0.8946192 0.383105,-0.926198 -0.03155,-0.03158 -0.37332,0.3453211 -0.759405,0.8375511 -0.923582,1.1775108 -1.131281,1.2727319 -2.464551,1.1299515 L 35.398367,9.4159319 34.650346,8.2781911 c -1.666203,-2.5343033 -2.262784,-4.5943133 -1.66627,-5.7535723 0.518243,-1.007143 1.256823,-1.273465 3.339413,-1.204163 2.33426,0.07767 2.801413,0.317255 5.688646,2.917401 3.971005,3.5761535 5.834038,4.5768459 8.5209,4.5768459 2.686869,0 4.549902,-1.0006924 8.520906,-4.5768459 2.887233,-2.600146 3.354386,-2.839726 5.688646,-2.917401 2.082591,-0.06929 2.821172,0.19702 3.339414,1.204163 0.596534,1.159259 -6.5e-5,3.219269 -1.666267,5.7535723 l -0.748025,1.1377408 -1.116365,0.11955 C 63.218075,9.6782568 63.010378,9.5830359 62.086789,8.4055296 61.700705,7.9132988 61.361305,7.5340628 61.332594,7.5627838 c -0.02877,0.02873 0.17735,0.4854758 0.457956,1.0150058 0.280587,0.5295331 0.558036,1.2225542 0.616534,1.5400484 0.09163,0.497443 0.05635,0.577263 -0.256104,0.577263 -0.494222,0 -1.029032,-0.29434 -1.715676,-0.9442512 -0.690828,-0.6538787 -0.700095,-0.6158871 -0.149387,0.6119532 0.570444,1.271865 0.74114,2.108701 0.429939,2.107827 -0.317813,-8.46e-4 -1.361395,-0.637852 -1.99289,-1.216375 l -0.513403,-0.470344 0.469007,0.814891 c 0.257954,0.448191 0.46901,1.067639 0.46901,1.376551 0,0.622624 -0.525721,1.272132 -1.029673,1.272132 -0.38904,0 -1.359107,-0.994371 -2.252635,-2.309049 -0.697709,-1.02661 -0.714196,-0.912127 -0.108039,0.750445 0.446557,1.224706 0.489539,2.657801 0.09162,3.055684 -0.646239,0.646249 -2.346922,0.115914 -2.819115,-0.87923 -0.156025,-0.328921 -0.355753,-1.359301 -0.443786,-2.289737 -0.08801,-0.930436 -0.204331,-1.763358 -0.258476,-1.850941 -0.08493,-0.137499 -1.26843,-0.403813 -1.794451,-0.403813 -0.526021,0 -1.70947,0.266317 -1.794445,0.403813 -0.05413,0.0876 -0.17045,0.920505 -0.258474,1.850941 -0.08806,0.930436 -0.287757,1.960816 -0.443838,2.289737 -0.472193,0.995081 -2.172877,1.525479 -2.819125,0.87923 z M 37.977582,0.80470783 c 0.128246,-0.05131 0.281407,-0.04499 0.340426,0.01401 0.05906,0.05901 -0.04595,0.100997 -0.233123,0.09329 -0.206916,-0.0086 -0.249005,-0.05062 -0.107338,-0.107314 z m 24.866679,0 c 0.12826,-0.05131 0.281432,-0.04499 0.34045,0.01401 0.05906,0.05901 -0.04595,0.100997 -0.233119,0.09329 -0.206926,-0.0086 -0.249006,-0.05062 -0.107353,-0.107314 z m -25.851316,-0.179374 c 0.172826,-0.04504 0.412611,-0.04206 0.532861,0.0066 0.120245,0.04865 -0.02109,0.0855 -0.314211,0.08189 -0.293064,-0.0036 -0.391468,-0.04342 -0.21865,-0.08846 z m 26.642891,0 c 0.172823,-0.04504 0.412591,-0.04206 0.532862,0.0066 0.120245,0.04865 -0.02109,0.0855 -0.314225,0.08189 -0.293074,-0.0036 -0.391457,-0.04342 -0.218637,-0.08846 z m -28.420013,-0.181987 c 0.269992,-0.04084 0.669622,-0.03973 0.888094,0.0024 0.218451,0.04215 -0.0025,0.07557 -0.490899,0.07422 -0.488443,-0.0012 -0.667193,-0.03583 -0.397195,-0.07665 z m 29.84003,0 c 0.269991,-0.04084 0.669623,-0.03973 0.888092,0.0024 0.218453,0.04215 -0.0025,0.07557 -0.490895,0.07422 -0.488444,-0.0012 -0.667189,-0.03583 -0.397197,-0.07665 z"
     id="path4563"
     inkscape:connector-curvature="0"
     sodipodi:nodetypes="ccsscsssssssscccccccsscsssssssscssssscssssssscssssssscccssscsssssscssssssssscsssscccssscssccssssssssssscccccccsscssssssssscccssscccccccssscssscssccccsscssscsssscccsssccccssscccccccccccccccsscccscscccscscccsscccscscsscsscsssssscssssscsscsssssscssssssssssscccssssssssscsssssscsscssssscssssscsssccsssssscscscssssssscssssssssscsscssssscscsssssssssssssscccccccccccccccccccccccccccccc" />
</svg>
