<?xml version="1.0" encoding="UTF-8" standalone="no"?>
<!-- Created with Inkscape (http://www.inkscape.org/) -->

<svg
   xmlns:osb="http://www.openswatchbook.org/uri/2009/osb"
   xmlns:dc="http://purl.org/dc/elements/1.1/"
   xmlns:cc="http://creativecommons.org/ns#"
   xmlns:rdf="http://www.w3.org/1999/02/22-rdf-syntax-ns#"
   xmlns:svg="http://www.w3.org/2000/svg"
   xmlns="http://www.w3.org/2000/svg"
   xmlns:sodipodi="http://sodipodi.sourceforge.net/DTD/sodipodi-0.dtd"
   xmlns:inkscape="http://www.inkscape.org/namespaces/inkscape"
   id="svg2"
   version="1.1"
   inkscape:version="0.91 r13725"
   width="100"
   height="58"
   viewBox="0 0 100 58"
   sodipodi:docname="templewood.svg">
  <sodipodi:namedview
     pagecolor="#ffffff"
     bordercolor="#666666"
     borderopacity="1"
     objecttolerance="10"
     gridtolerance="10"
     guidetolerance="10"
     inkscape:pageopacity="0"
     inkscape:pageshadow="2"
     inkscape:window-width="1871"
     inkscape:window-height="1056"
     id="namedview4"
     showgrid="false"
     borderlayer="true"
     inkscape:zoom="4.4528302"
     inkscape:cx="5.9221583"
     inkscape:cy="29.345443"
     inkscape:window-x="49"
     inkscape:window-y="24"
     inkscape:window-maximized="1"
     inkscape:current-layer="svg2" />
  <metadata
     id="metadata8">
    <rdf:RDF>
      <cc:Work
         rdf:about="">
        <dc:format>image/svg+xml</dc:format>
        <dc:type
           rdf:resource="http://purl.org/dc/dcmitype/StillImage" />
        <dc:title />
      </cc:Work>
    </rdf:RDF>
  </metadata>
  <defs
     id="defs6">
    <linearGradient
       id="FFF"
       osb:paint="solid">
      <stop
         style="stop-color:#000000;stop-opacity:1;"
         offset="0"
         id="stop4144" />
    </linearGradient>
    <filter
       inkscape:label="filter1"
       id="filter4545"
       style="color-interpolation-filters:sRGB" />
  </defs>
  <path
     style="fill:#ffffff;fill-opacity:1"
     d="m 39.536895,56.918626 c -1.402703,-0.501162 -6.114751,-3.767921 -9.834146,-6.817768 -5.614343,-4.603703 -7.736133,-7.229886 -14.187902,-17.560729 -1.36411,-2.184305 -2.520136,-3.9315 -2.568973,-3.882667 -0.04884,0.04883 1.116286,4.107775 2.589147,9.019879 2.354394,7.852037 2.941831,9.458198 4.862114,13.293411 1.201263,2.399231 2.11546,4.430927 2.031552,4.514869 -0.447663,0.447665 -6.21842,-5.423713 -8.773101,-8.926045 C 12.316194,44.723334 10.25875,40.406649 9.2068583,37.225877 8.4579136,34.961106 7.5908803,30.739493 7.552968,29.173056 l -0.018305,-0.768984 -0.3269219,0.734044 c -0.5786143,1.299206 -0.4519434,9.188985 0.1922441,11.965726 0.3091209,1.332701 0.462441,2.52188 0.3407067,2.642592 C 7.3981722,44.086078 6.2008269,42.441503 4.9052535,39.851925 3.272386,36.588132 2.7866541,33.585093 2.9187539,27.570202 l 0.1020625,-4.650896 -0.7018452,1.567895 c -0.386005,0.862351 -1.007704,2.492797 -1.38153827,3.623239 l -0.67972874,2.055324 -0.007595,-1.908511 c -0.009874,-2.504873 0.64990978,-5.536132 1.69097671,-7.760814 0.9925652,-2.121093 4.1766492,-5.98997 8.0951771,-9.836183 1.551685,-1.5230644 2.821248,-2.8710555 2.821248,-2.9955377 0,-0.1244608 1.156133,-1.2284647 2.569187,-2.4532929 2.809506,-2.435299 6.08781,-4.27801681 7.526748,-4.23074361 l 0.914761,0.030053 -0.901218,0.2156284 c -2.526627,0.6045146 -3.800733,2.2089206 -3.745032,4.7157899 0.06677,3.0093657 1.601442,6.2198829 5.403363,11.3043549 2.200632,2.942994 8.337355,9.721626 10.992886,12.142789 1.688241,1.539237 1.715575,1.58874 1.292577,2.342355 -1.200656,2.139139 -4.027777,2.712557 -6.612698,1.341296 -1.87007,-0.992044 -4.99086,-3.551954 -6.886168,-5.648522 -0.992002,-1.097359 -1.274472,-1.313433 -0.830486,-0.635271 1.336877,2.041954 6.567904,9.022664 9.021072,12.03839 3.282196,4.034929 13.019715,13.778335 14.800916,14.809915 1.49601,0.866405 1.741367,1.521675 0.866279,2.313607 -1.401757,1.268569 -5.466159,1.777173 -7.732152,0.967552 z m 14.886467,-0.05748 c -2.5855,-0.946996 -2.866518,-2.042473 -0.826922,-3.223701 1.781206,-1.031578 11.518731,-10.774984 14.800924,-14.809912 2.453152,-3.015728 7.684214,-9.996436 9.021092,-12.03839 0.443957,-0.678162 0.161587,-0.462088 -0.830505,0.635267 -1.895294,2.096571 -5.016086,4.656479 -6.886181,5.648525 -2.574494,1.365744 -5.412002,0.797854 -6.601424,-1.321233 -0.412057,-0.73416 -0.367141,-0.801376 2.152149,-3.219999 3.148194,-3.022392 7.94377,-8.362327 10.226106,-11.386873 C 81.973318,8.5380428 82.558185,2.5483198 77.03297,1.2263252 l -0.901218,-0.2156283 0.914826,-0.030053 c 1.438902,-0.047278 4.717211,1.79544621 7.526738,4.23074361 1.413028,1.2248297 2.56917,2.3288106 2.56917,2.4532928 0,0.1244607 1.269568,1.472475 2.82127,2.9955377 3.918493,3.846216 7.102588,7.715091 8.095175,9.836185 1.041037,2.224682 1.701514,5.25594 1.690944,7.760814 l -0.008,1.908511 -0.679725,-2.055314 c -0.37356,-1.130413 -0.995272,-2.760861 -1.381256,-3.623209 l -0.701849,-1.567898 0.102114,4.650897 c 0.132096,6.01489 -0.353636,9.01793 -1.9865,12.281723 -1.295535,2.589578 -2.492917,4.234152 -2.835433,3.894509 -0.121619,-0.120604 0.03162,-1.309893 0.340697,-2.64259 0.644068,-2.776743 0.770736,-10.666522 0.192241,-11.965727 l -0.326913,-0.734045 -0.0183,0.921804 c -0.08823,4.375094 -3.263284,13.341093 -6.102642,17.2337 -2.554659,3.50233 -8.325402,9.373711 -8.773056,8.926045 -0.08387,-0.08392 0.83025,-2.115636 2.031549,-4.514876 1.920249,-3.835206 2.507719,-5.441367 4.862073,-13.293403 1.472856,-4.912107 2.63798,-8.971074 2.589154,-9.01988 -0.04884,-0.04883 -1.204869,1.698362 -2.568982,3.882666 -6.451781,10.330838 -8.573537,12.957021 -14.1879,17.560722 -3.719378,3.049848 -8.431452,6.316607 -9.834135,6.817768 -1.407495,0.502876 -4.59181,0.472593 -6.038965,-0.05742 z M 41.211986,26.034122 c -0.657737,-0.657733 -0.586686,-3.02676 0.151456,-5.051305 1.002098,-2.748371 0.974861,-2.937616 -0.178601,-1.240548 -1.477073,2.173275 -3.080676,3.817052 -3.723792,3.817052 -0.833075,0 -1.702137,-1.07369 -1.702137,-2.102941 0,-0.510655 0.348905,-1.534656 0.775313,-2.275555 l 0.775335,-1.347082 -0.848709,0.777518 c -1.043902,0.956348 -2.769043,2.009293 -3.294405,2.010769 -0.509675,0.0014 -0.234442,-1.376634 0.684387,-3.426891 l 0.681006,-1.51946 -1.317449,1.005627 c -0.724578,0.553096 -1.652329,1.005626 -2.06167,1.005626 -0.698546,0 -0.732397,-0.06762 -0.551468,-1.101074 0.106063,-0.60559 0.520484,-1.747347 0.921021,-2.537241 0.400514,-0.789896 0.685486,-1.47888 0.633306,-1.531083 -0.05216,-0.05222 -0.617131,0.570846 -1.255361,1.384543 -1.526759,1.946523 -1.870104,2.103931 -4.074113,1.867904 L 24.980721,15.572369 23.744179,13.691587 C 20.989806,9.5021727 20.003606,6.0968025 20.989694,4.1804496 c 0.856699,-1.6648923 2.077634,-2.1051449 5.520332,-1.9905831 3.858728,0.1283953 4.630971,0.5244495 9.403811,4.8227098 6.564405,5.9116837 9.644156,7.5659117 14.085766,7.5659117 4.44162,0 7.521371,-1.654228 14.085778,-7.5659117 4.772839,-4.2982603 5.545082,-4.6943063 9.403811,-4.8227098 3.442698,-0.1145418 4.663633,0.3256908 5.520332,1.9905831 0.98612,1.9163529 -1.07e-4,5.3217231 -2.754479,9.5111394 l -1.236549,1.880782 -1.845448,0.197626 c -2.204005,0.236018 -2.547345,0.0786 -4.074115,-1.867905 -0.638231,-0.813699 -1.199287,-1.440608 -1.246748,-1.39313 -0.04754,0.04748 0.293174,0.802532 0.757039,1.67789 0.463835,0.875363 0.922482,2.020984 1.019184,2.54583 0.151472,0.822315 0.09317,0.954264 -0.423364,0.954264 -0.81699,0 -1.701075,-0.486569 -2.836154,-1.560927 -1.141998,-1.080915 -1.157317,-1.018113 -0.246951,1.011611 0.942991,2.1025 1.225169,3.48586 0.710727,3.484415 -0.525372,-0.0014 -2.250502,-1.054422 -3.294416,-2.01077 l -0.848698,-0.777519 0.775305,1.347082 c 0.426423,0.7409 0.775315,1.764901 0.775315,2.275555 0,1.029251 -0.86906,2.102943 -1.702135,2.102943 -0.643118,0 -2.246719,-1.643779 -3.723797,-3.817053 -1.15337,-1.697072 -1.180625,-1.507822 -0.178596,1.240547 0.738196,2.024545 0.809248,4.393573 0.151455,5.051308 -1.068289,1.068302 -3.879659,0.191613 -4.660235,-1.453445 -0.257922,-0.543732 -0.588091,-2.247037 -0.733615,-3.785127 -0.145488,-1.53809 -0.337777,-2.91498 -0.427283,-3.05976 -0.140398,-0.227299 -2.096823,-0.667537 -2.96638,-0.667537 -0.869557,0 -2.8259,0.440243 -2.966368,0.667537 -0.08948,0.144809 -0.281768,1.52167 -0.42728,3.05976 -0.145572,1.53809 -0.475688,3.241395 -0.733703,3.785127 -0.780573,1.644954 -3.591948,2.521747 -4.660249,1.453431 z M 29.244381,1.3372918 c 0.212001,-0.084821 0.465189,-0.074371 0.562751,0.023161 0.09762,0.097549 -0.07594,0.1669567 -0.385368,0.1542163 -0.342053,-0.014218 -0.41163,-0.083679 -0.17744,-0.1773995 z m 41.106717,0 c 0.212023,-0.084821 0.465231,-0.074371 0.562793,0.023161 0.09762,0.097549 -0.07594,0.1669567 -0.385367,0.1542163 C 70.186459,1.5004511 70.116899,1.4309901 70.351061,1.337269 Z M 27.616693,1.0407714 c 0.285697,-0.074454 0.682079,-0.069529 0.880862,0.01091 0.198778,0.080422 -0.03485,0.1413387 -0.519416,0.1353711 -0.484461,-0.00594 -0.647129,-0.071778 -0.361446,-0.1462321 z m 44.042943,0 c 0.285692,-0.074454 0.68205,-0.069529 0.880868,0.01091 0.198774,0.080422 -0.03484,0.1413387 -0.519441,0.1353711 -0.484476,-0.00593 -0.647111,-0.071778 -0.361427,-0.1462317 z M 24.67896,0.73993155 c 0.446321,-0.0675121 1.106942,-0.0656772 1.468095,0.003967 0.361118,0.0696777 -0.0041,0.12492364 -0.8115,0.12269204 -0.807435,-0.00198 -1.102924,-0.0592303 -0.656595,-0.12670901 z m 49.328085,0 c 0.44632,-0.0675121 1.106945,-0.0656772 1.468093,0.003967 0.361121,0.0696777 -0.0041,0.12492364 -0.811493,0.12269204 -0.807437,-0.00198 -1.102918,-0.0592303 -0.6566,-0.12670901 z"
     id="path4563"
     inkscape:connector-curvature="0"
     sodipodi:nodetypes="ssssssscssssscsscsssssscssssssssssscccssssssssscsssssscsscssssscssssscsssccssscsscscscssssssscssssssssscsscssssscscssssssssssssssccccccccccccccccccccccccccccccccc" />
</svg>
