<?xml version="1.0" encoding="utf-8"?>
<!-- Generator: Adobe Illustrator 15.0.0, SVG Export Plug-In . SVG Version: 6.00 Build 0)  -->
<!DOCTYPE svg PUBLIC "-//W3C//DTD SVG 1.1//EN" "http://www.w3.org/Graphics/SVG/1.1/DTD/svg11.dtd">
<svg version="1.1" id="Layer_1" xmlns="http://www.w3.org/2000/svg" xmlns:xlink="http://www.w3.org/1999/xlink" x="0px" y="0px"
	 width="160px" height="32.701px" viewBox="0 0 160 32.701" enable-background="new 0 0 160 32.701" xml:space="preserve">
<g>
	<g>
		<g>
			<path d="M6.994,29.722H0V17.351h6.994v2.683H3.183v1.946h3.529v2.682H3.183v2.336h3.811V29.722z"/>
			<path d="M37.724,19.915c-0.756,0-1.347,0.326-1.772,0.977c-0.424,0.652-0.636,1.549-0.636,2.695c0,2.38,0.862,3.57,2.586,3.57
				c0.521,0,1.026-0.076,1.515-0.227c0.488-0.153,0.98-0.336,1.475-0.551v2.827c-0.983,0.457-2.095,0.686-3.336,0.686
				c-1.777,0-3.141-0.542-4.089-1.625c-0.948-1.083-1.422-2.648-1.422-4.696c0-1.28,0.229-2.406,0.689-3.376
				c0.459-0.97,1.12-1.716,1.981-2.238c0.863-0.522,1.876-0.783,3.042-0.783c1.273,0,2.49,0.292,3.649,0.871l-0.975,2.633
				c-0.434-0.215-0.87-0.395-1.304-0.542C38.691,19.988,38.225,19.915,37.724,19.915z"/>
			<path d="M55.131,29.722h-6.993V17.351h6.993v2.683h-3.811v1.946h3.528v2.682h-3.528v2.336h3.811V29.722z"/>
			<path d="M62.145,29.722V17.351h3.182v9.672h4.537v2.699H62.145z"/>
			<path d="M76.699,29.722V17.351h3.182v9.672h4.536v2.699H76.699z"/>
			<path d="M98.246,29.722h-6.994V17.351h6.994v2.683h-3.811v1.946h3.53v2.682h-3.53v2.336h3.811V29.722z"/>
			<path d="M108.442,25.22v4.501h-3.184V17.351h3.859c3.202,0,4.802,1.218,4.802,3.655c0,1.433-0.666,2.542-1.998,3.326l3.432,5.39
				h-3.608l-2.498-4.501H108.442z M108.442,22.708h0.596c1.111,0,1.668-0.517,1.668-1.548c0-0.852-0.545-1.278-1.635-1.278h-0.629
				V22.708z"/>
			<path d="M128.604,29.722l-0.581-2.318h-3.827l-0.596,2.318h-3.496l3.843-12.422h4.247l3.89,12.422H128.604z M127.364,24.662
				l-0.509-2.031c-0.118-0.451-0.262-1.034-0.431-1.75c-0.17-0.717-0.281-1.23-0.334-1.54c-0.049,0.288-0.144,0.761-0.286,1.421
				c-0.144,0.66-0.46,1.96-0.947,3.9H127.364z"/>
			<path d="M143.504,29.722h-3.181v-9.638h-2.878v-2.733h8.928v2.733h-2.869V29.722z"/>
			<path d="M160,29.722h-6.994V17.351H160v2.683h-3.81v1.946h3.528v2.682h-3.528v2.336H160V29.722z"/>
		</g>
		<path d="M17.867,22.052c0.087-1.007-3.038-4.645-2.914-5.622c0.069-0.56,2.278-1.719,2.809-1.516
			c0.568,0.218,2.011,5.335,2.485,5.373c0.974,0.085,4.913-5.971,6.052-5.917c0.778,0.037,2.489,0.989,2.493,2.037
			c0.004,0.94-6.969,5.78-7.139,6.812c-0.279,1.688,4.337,6.696,4.337,7.532c0,0.94-3.035,2.275-3.626,1.878
			c-1.223-0.815-3.134-7.122-3.417-7.19c-0.939-0.231-4.125,5.047-4.818,5.207c-0.617,0.145-2.361-1.31-2.361-1.902
			C11.767,27.487,17.762,23.281,17.867,22.052"/>
	</g>
	<g>
		<path d="M4.309,2.371c0,0.798-0.207,1.409-0.619,1.831C3.278,4.624,2.684,4.835,1.909,4.835H0.634V0h1.411
			c0.716,0,1.272,0.208,1.669,0.625C4.111,1.042,4.309,1.624,4.309,2.371z M3.742,2.391c0-0.631-0.15-1.106-0.452-1.425
			c-0.301-0.32-0.749-0.479-1.343-0.479H1.169v3.863h0.652c0.638,0,1.118-0.165,1.439-0.495C3.582,3.525,3.742,3.037,3.742,2.391z"
			/>
		<path d="M8.773,2.824v2.011H8.238V0h1.263c0.564,0,0.982,0.114,1.252,0.341c0.27,0.227,0.404,0.569,0.404,1.025
			c0,0.64-0.309,1.072-0.926,1.297l1.25,2.173h-0.633L9.734,2.824H8.773z M8.773,2.342h0.734c0.378,0,0.655-0.079,0.831-0.237
			s0.265-0.394,0.265-0.709c0-0.319-0.09-0.55-0.269-0.691c-0.18-0.141-0.468-0.212-0.865-0.212H8.773V2.342z"/>
		<path d="M15.127,4.835V0h0.535v4.835H15.127z"/>
		<path d="M22.458,0h0.577l-1.66,4.835h-0.529L19.195,0h0.567l1.058,3.129c0.122,0.359,0.219,0.708,0.29,1.048
			c0.076-0.357,0.174-0.713,0.296-1.068L22.458,0z"/>
		<path d="M29.136,4.835h-2.567V0h2.567v0.5h-2.031v1.558h1.909v0.496h-1.909v1.779h2.031V4.835z"/>
		<path d="M36.655,4.835h-0.611l-2.516-4.058h-0.025c0.033,0.476,0.05,0.913,0.05,1.31v2.749h-0.494V0h0.604l2.51,4.042h0.024
			c-0.004-0.06-0.014-0.251-0.028-0.574c-0.015-0.323-0.02-0.554-0.016-0.693V0h0.501V4.835z"/>
		<path d="M45.401,0h1.301c0.611,0,1.053,0.096,1.326,0.288c0.272,0.192,0.409,0.495,0.409,0.91c0,0.287-0.076,0.523-0.228,0.709
			c-0.152,0.186-0.374,0.307-0.666,0.362v0.033c0.699,0.125,1.048,0.512,1.048,1.158c0,0.432-0.139,0.77-0.417,1.012
			c-0.278,0.243-0.667,0.364-1.167,0.364h-1.606V0z M45.937,2.07h0.881c0.378,0,0.65-0.062,0.815-0.187
			c0.167-0.125,0.25-0.334,0.25-0.63c0-0.271-0.092-0.467-0.277-0.587s-0.479-0.18-0.882-0.18h-0.787V2.07z M45.937,2.546v1.809
			h0.96c0.372,0,0.651-0.075,0.839-0.226c0.188-0.151,0.281-0.388,0.281-0.709c0-0.3-0.096-0.521-0.288-0.662
			c-0.192-0.141-0.485-0.212-0.877-0.212H45.937z"/>
		<path d="M53.654,2.417L54.882,0h0.579l-1.537,2.96v1.875h-0.542V2.986L51.85,0h0.586L53.654,2.417z"/>
	</g>
</g>
</svg>
