<?xml version="1.0" encoding="utf-8"?>
<!-- Generator: Adobe Illustrator 16.0.0, SVG Export Plug-In . SVG Version: 6.00 Build 0)  -->
<!DOCTYPE svg PUBLIC "-//W3C//DTD SVG 1.1//EN" "http://www.w3.org/Graphics/SVG/1.1/DTD/svg11.dtd">
<svg version="1.1" id="Layer_1" xmlns="http://www.w3.org/2000/svg" xmlns:xlink="http://www.w3.org/1999/xlink" x="0px" y="0px"
	 width="297.002px" height="57.506px" viewBox="0 0 297.002 57.506" enable-background="new 0 0 297.002 57.506"
	 xml:space="preserve">
<g id="Logo">
	<path fill="#1D1D1B" d="M13.108,51.567c0,1.161-0.294,2.19-0.884,3.092c-0.589,0.899-1.437,1.599-2.549,2.099
		c-1.109,0.498-2.409,0.748-3.9,0.748c-1.247,0-2.291-0.088-3.138-0.262C1.795,57.069,0.917,56.764,0,56.328v-4.504
		c0.966,0.494,1.968,0.881,3.009,1.157c1.041,0.278,1.998,0.417,2.866,0.417c0.751,0,1.305-0.131,1.654-0.392
		c0.347-0.259,0.523-0.595,0.523-1.003c0-0.258-0.072-0.48-0.209-0.673c-0.143-0.191-0.369-0.386-0.68-0.583
		c-0.311-0.196-1.139-0.597-2.488-1.203c-1.222-0.555-2.136-1.092-2.747-1.611c-0.608-0.521-1.062-1.118-1.357-1.793
		c-0.295-0.674-0.44-1.473-0.44-2.393c0-1.723,0.627-3.066,1.883-4.031c1.253-0.965,2.976-1.446,5.169-1.446
		c1.938,0,3.912,0.448,5.927,1.345l-1.55,3.902c-1.751-0.802-3.259-1.202-4.531-1.202c-0.656,0-1.134,0.114-1.432,0.346
		c-0.3,0.229-0.449,0.517-0.449,0.856c0,0.367,0.187,0.695,0.57,0.986c0.377,0.289,1.41,0.818,3.088,1.586
		c1.613,0.726,2.734,1.504,3.361,2.336C12.792,49.258,13.108,50.305,13.108,51.567"/>
	<polygon fill="#1D1D1B" points="29.729,57.25 18.619,57.25 18.619,38.539 29.729,38.539 29.729,42.597 23.676,42.597 
		23.676,45.539 29.283,45.539 29.283,49.598 23.676,49.598 23.676,53.129 29.729,53.129 	"/>
	<path fill="#1D1D1B" d="M40.682,50.441v6.81h-5.054V38.538h6.13c5.084,0,7.627,1.845,7.627,5.53c0,2.166-1.06,3.844-3.174,5.029
		l5.45,8.153h-5.733l-3.967-6.81H40.682z M40.682,46.641h0.947c1.767,0,2.65-0.78,2.65-2.342c0-1.289-0.867-1.933-2.599-1.933
		h-0.999V46.641z"/>
	<path fill="#1D1D1B" d="M66.494,38.539h5.657L66.02,57.25h-5.951l-6.105-18.711h5.685l2.543,9.483
		c0.531,2.107,0.82,3.575,0.873,4.402c0.058-0.597,0.179-1.344,0.358-2.239c0.179-0.896,0.339-1.6,0.474-2.111L66.494,38.539z"/>
	<rect x="76.792" y="38.538" fill="#1D1D1B" width="5.082" height="18.711"/>
	<path fill="#1D1D1B" d="M96.872,42.416c-1.206,0-2.144,0.494-2.816,1.479c-0.677,0.985-1.013,2.344-1.013,4.076
		c0,3.602,1.37,5.4,4.106,5.4c0.829,0,1.633-0.115,2.409-0.344c0.776-0.23,1.558-0.508,2.34-0.832v4.274
		c-1.558,0.69-3.325,1.036-5.296,1.036c-2.824,0-4.988-0.82-6.496-2.457c-1.505-1.638-2.257-4.006-2.257-7.103
		c0-1.937,0.363-3.64,1.093-5.106c0.729-1.467,1.781-2.597,3.149-3.386c1.368-0.79,2.981-1.184,4.831-1.184
		c2.023,0,3.956,0.439,5.797,1.317l-1.547,3.98c-0.691-0.324-1.385-0.596-2.076-0.818C98.408,42.527,97.662,42.416,96.872,42.416"/>
	<polygon fill="#1D1D1B" points="119.279,57.25 108.169,57.25 108.169,38.539 119.279,38.539 119.279,42.597 113.226,42.597 
		113.226,45.539 118.83,45.539 118.83,49.598 113.226,49.598 113.226,53.129 119.279,53.129 	"/>
	<path fill="#1D1D1B" d="M137.411,51.567c0,1.161-0.295,2.19-0.884,3.092c-0.589,0.899-1.438,1.599-2.549,2.099
		c-1.109,0.498-2.409,0.748-3.901,0.748c-1.247,0-2.29-0.088-3.138-0.262c-0.842-0.175-1.72-0.48-2.637-0.916v-4.504
		c0.966,0.494,1.968,0.881,3.011,1.157c1.038,0.278,1.996,0.417,2.863,0.417c0.751,0,1.305-0.131,1.654-0.392
		c0.35-0.259,0.523-0.595,0.523-1.003c0-0.258-0.072-0.48-0.209-0.673c-0.14-0.191-0.369-0.386-0.68-0.583
		c-0.311-0.196-1.14-0.597-2.488-1.203c-1.222-0.555-2.136-1.092-2.747-1.611c-0.608-0.521-1.062-1.118-1.357-1.793
		c-0.294-0.674-0.44-1.473-0.44-2.393c0-1.723,0.627-3.066,1.882-4.031c1.255-0.965,2.976-1.446,5.17-1.446
		c1.938,0,3.912,0.448,5.927,1.345l-1.55,3.902c-1.75-0.802-3.259-1.202-4.531-1.202c-0.655,0-1.134,0.114-1.431,0.346
		c-0.3,0.229-0.449,0.517-0.449,0.856c0,0.367,0.187,0.695,0.57,0.986c0.377,0.289,1.409,0.818,3.088,1.586
		c1.616,0.726,2.733,1.504,3.361,2.336C137.094,49.258,137.411,50.305,137.411,51.567"/>
	<polygon fill="#1D1D1B" points="15.192,28.336 2.312,28.363 2.266,5.587 15.145,5.562 15.156,10.497 8.137,10.511 8.145,14.088 
		14.636,14.076 14.646,19.029 8.153,19.043 8.162,23.338 15.181,23.324 	"/>
	<path fill="#1D1D1B" d="M71.762,10.156c-1.396,0.003-2.489,0.613-3.268,1.824c-0.776,1.192-1.172,2.848-1.167,4.958
		c0.005,4.385,1.602,6.568,4.779,6.562c0.963-0.003,1.896-0.146,2.788-0.426c0.903-0.28,1.817-0.625,2.72-1.014l0.008,5.201
		c-1.8,0.851-3.851,1.275-6.146,1.279c-3.273,0.007-5.778-0.984-7.529-2.979c-1.75-1.984-2.629-4.873-2.637-8.651
		c-0.005-2.348,0.405-4.437,1.261-6.218c0.832-1.78,2.051-3.147,3.647-4.126c1.569-0.961,3.438-1.443,5.585-1.447
		c2.342-0.006,4.594,0.519,6.73,1.577l-1.79,4.868c-0.795-0.393-1.61-0.734-2.408-0.998C73.529,10.301,72.673,10.155,71.762,10.156"
		/>
	<polygon fill="#1D1D1B" points="103.85,28.158 90.97,28.185 90.927,5.408 103.806,5.383 103.814,10.319 96.804,10.333 
		96.812,13.91 103.303,13.897 103.316,18.851 96.82,18.865 96.828,23.16 103.839,23.146 	"/>
	<polygon fill="#1D1D1B" points="116.774,28.132 116.73,5.357 122.582,5.346 122.618,23.153 130.967,23.136 130.978,28.104 	"/>
	<polygon fill="#1D1D1B" points="143.577,28.079 143.533,5.303 149.385,5.292 149.42,23.1 157.777,23.083 157.789,28.049 	"/>
	<polygon fill="#1D1D1B" points="183.262,27.999 170.382,28.024 170.338,5.249 183.218,5.224 183.226,10.159 176.207,10.173 
		176.215,13.75 182.714,13.738 182.725,18.691 176.226,18.705 176.234,23 183.25,22.986 	"/>
	<path fill="#1D1D1B" d="M202.007,15.035l1.102-0.002c2.057-0.004,3.069-0.938,3.066-2.847c-0.003-1.564-1.008-2.351-3.012-2.348
		L202,9.841L202.007,15.035z M202.019,19.673l0.017,8.287l-5.854,0.013l-0.045-22.776l7.094-0.014
		c5.907-0.013,8.861,2.214,8.869,6.715c0.006,2.639-1.225,4.673-3.672,6.133l6.339,9.904l-6.642,0.013l-4.617-8.277L202.019,19.673z
		"/>
	<path fill="#1D1D1B" d="M236.862,18.583l-0.933-3.744c-0.221-0.841-0.487-1.914-0.799-3.232c-0.322-1.313-0.528-2.257-0.621-2.838
		c-0.089,0.53-0.262,1.404-0.527,2.626c-0.261,1.217-0.83,3.618-1.723,7.197L236.862,18.583z M239.171,27.886l-1.07-4.253
		l-7.05,0.014l-1.091,4.258l-6.449,0.012l7.039-22.892l7.826-0.016l7.206,22.864L239.171,27.886z"/>
	<polygon fill="#1D1D1B" points="266.616,27.831 260.761,27.843 260.725,10.094 255.416,10.104 255.404,5.078 271.854,5.045 
		271.865,10.071 266.58,10.081 	"/>
	<polygon fill="#1D1D1B" points="297.002,27.77 284.117,27.796 284.071,5.02 296.958,4.995 296.966,9.93 289.948,9.944 
		289.956,13.521 296.449,13.508 296.458,18.462 289.966,18.476 289.974,22.771 296.992,22.757 	"/>
	<path fill="#1D1D1B" d="M35.188,14.172c0.157-1.856-5.607-8.541-5.384-10.337c0.121-1.036,4.184-3.178,5.169-2.799
		c1.035,0.399,3.719,9.806,4.591,9.881c1.801,0.146,9.029-11.021,11.119-10.915c1.442,0.047,4.597,1.815,4.607,3.736
		c0.008,1.727-12.814,10.671-13.119,12.581c-0.512,3.106,8.007,12.313,8.01,13.846c0.003,1.727-5.58,4.203-6.662,3.487
		c-2.262-1.515-5.802-13.119-6.333-13.241c-1.729-0.43-7.575,9.311-8.855,9.605c-1.131,0.278-4.352-2.405-4.354-3.492
		C23.97,24.201,35.003,16.435,35.188,14.172"/>
	<rect x="174.539" y="37.912" fill="#E23D40" width="28.564" height="19.256"/>
	<rect x="143.365" y="37.912" fill="#F47721" width="28.567" height="19.256"/>
	<rect x="236.884" y="37.912" fill="#00A0AF" width="28.566" height="19.256"/>
	<rect x="205.71" y="37.912" fill="#00539B" width="28.566" height="19.256"/>
	<rect x="268.058" y="37.912" fill="#B2BB1E" width="28.566" height="19.256"/>
</g>
</svg>
