<?xml version="1.0" encoding="utf-8"?>
<!-- Generator: Adobe Illustrator 15.0.0, SVG Export Plug-In . SVG Version: 6.00 Build 0)  -->
<!DOCTYPE svg PUBLIC "-//W3C//DTD SVG 1.1//EN" "http://www.w3.org/Graphics/SVG/1.1/DTD/svg11.dtd">
<svg version="1.1" id="Layer_1" xmlns="http://www.w3.org/2000/svg" xmlns:xlink="http://www.w3.org/1999/xlink" x="0px" y="0px"
	 width="270px" height="35.622px" viewBox="25 3.298 270 35.622" enable-background="new 25 3.298 270 35.622" xml:space="preserve"
	>
<g>
	<g>
		<path fill="#1D1D1B" d="M36.802,29.203H25V8.329h11.802v4.523H30.37v3.285h5.956v4.527H30.37v3.943h6.432L36.802,29.203
			L36.802,29.203z"/>
		<path fill="#1D1D1B" d="M88.661,12.654c-1.278,0-2.275,0.549-2.991,1.648c-0.714,1.101-1.073,2.615-1.073,4.548
			c0,4.016,1.454,6.024,4.364,6.024c0.878,0,1.73-0.128,2.556-0.386c0.825-0.256,1.653-0.565,2.488-0.925v4.765
			c-1.658,0.772-3.536,1.158-5.629,1.158c-3,0-5.3-0.914-6.899-2.742c-1.6-1.826-2.4-4.47-2.4-7.924
			c0-2.159,0.388-4.059,1.162-5.697c0.776-1.637,1.892-2.897,3.345-3.778c1.455-0.879,3.165-1.319,5.132-1.319
			c2.148,0,4.201,0.49,6.159,1.47l-1.645,4.439c-0.732-0.36-1.468-0.664-2.202-0.913C90.292,12.778,89.503,12.654,88.661,12.654z"/>
		<path fill="#1D1D1B" d="M118.034,29.203h-11.803V8.329h11.802v4.523h-6.431v3.285h5.955v4.527h-5.955v3.943h6.431L118.034,29.203
			L118.034,29.203z"/>
		<path fill="#1D1D1B" d="M129.869,29.203V8.329h5.371v16.319h7.655v4.557L129.869,29.203L129.869,29.203z"/>
		<path fill="#1D1D1B" d="M154.43,29.203V8.329h5.369v16.319h7.656v4.557L154.43,29.203L154.43,29.203z"/>
		<path fill="#1D1D1B" d="M190.79,29.203H178.99V8.329h11.801v4.523h-6.433v3.285h5.959v4.527h-5.959v3.943h6.433V29.203z"/>
		<path fill="#1D1D1B" d="M207.998,21.606v7.598h-5.373V8.329h6.514c5.401,0,8.102,2.053,8.102,6.167c0,2.42-1.124,4.289-3.371,5.61
			l5.791,9.098h-6.091l-4.214-7.598L207.998,21.606L207.998,21.606z M207.998,17.364h1.004c1.876,0,2.814-0.869,2.814-2.613
			c0-1.436-0.919-2.156-2.759-2.156h-1.06V17.364z"/>
		<path fill="#1D1D1B" d="M242.019,29.203l-0.979-3.915h-6.459l-1.006,3.915h-5.901l6.487-20.964h7.165l6.565,20.964H242.019z
			 M239.928,20.664l-0.86-3.428c-0.196-0.759-0.44-1.745-0.728-2.954c-0.285-1.209-0.474-2.076-0.562-2.599
			c-0.082,0.485-0.243,1.285-0.483,2.398c-0.24,1.113-0.775,3.309-1.598,6.583H239.928L239.928,20.664z"/>
		<path fill="#1D1D1B" d="M267.164,29.203h-5.37V12.94h-4.854V8.329h15.064v4.61h-4.84V29.203z"/>
		<path fill="#1D1D1B" d="M295,29.203h-11.801V8.329H295v4.523h-6.43v3.285h5.955v4.527h-5.955v3.943H295V29.203z"/>
	</g>
	<path fill="#1D1D1B" d="M55.151,16.26c0.148-1.699-5.127-7.835-4.918-9.485c0.116-0.946,3.845-2.902,4.741-2.557
		c0.958,0.365,3.394,9.001,4.193,9.066c1.641,0.143,8.29-10.077,10.21-9.985c1.315,0.061,4.201,1.668,4.209,3.436
		C73.592,8.32,61.826,16.49,61.54,18.229c-0.472,2.85,7.318,11.3,7.318,12.71c0,1.588-5.122,3.84-6.119,3.172
		c-2.065-1.38-5.29-12.017-5.769-12.135c-1.583-0.391-6.961,8.516-8.129,8.787c-1.043,0.245-3.985-2.211-3.985-3.208
		C44.856,25.432,54.974,18.334,55.151,16.26"/>
</g>
</svg>
