<?xml version="1.0" encoding="utf-8"?>
<!-- Generator: Adobe Illustrator 16.0.0, SVG Export Plug-In . SVG Version: 6.00 Build 0)  -->
<!DOCTYPE svg PUBLIC "-//W3C//DTD SVG 1.1//EN" "http://www.w3.org/Graphics/SVG/1.1/DTD/svg11.dtd">
<svg version="1.1" id="Layer_1" xmlns="http://www.w3.org/2000/svg" xmlns:xlink="http://www.w3.org/1999/xlink" x="0px" y="0px"
	 width="270px" height="51px" viewBox="0 0 270 51" enable-background="new 0 0 270 51" xml:space="preserve">
<g>
	<g>
		<g>
			<path d="M11.802,25.905H0V5.03h11.802v4.525H5.37v3.283h5.956v4.527H5.37v3.941h6.432V25.905z"/>
			<path d="M63.66,9.354c-1.277,0-2.273,0.551-2.991,1.648c-0.715,1.1-1.073,2.615-1.073,4.549c0,4.016,1.454,6.025,4.365,6.025
				c0.878,0,1.731-0.129,2.556-0.389c0.824-0.254,1.654-0.564,2.488-0.926v4.768c-1.659,0.771-3.535,1.156-5.629,1.156
				c-3.001,0-5.299-0.914-6.899-2.74c-1.6-1.828-2.401-4.471-2.401-7.924c0-2.16,0.389-4.061,1.163-5.697
				c0.776-1.639,1.891-2.898,3.347-3.779c1.454-0.879,3.164-1.318,5.131-1.318c2.148,0,4.202,0.488,6.16,1.469l-1.646,4.439
				c-0.732-0.361-1.467-0.662-2.201-0.914C65.292,9.479,64.504,9.354,63.66,9.354z"/>
			<path d="M93.034,25.905H81.231V5.03h11.803v4.525h-6.431v3.283h5.955v4.527h-5.955v3.941h6.431V25.905z"/>
			<path d="M104.87,25.905V5.03h5.369v16.32h7.656v4.555H104.87z"/>
			<path d="M129.431,25.905V5.03h5.368v16.32h7.655v4.555H129.431z"/>
			<path d="M165.791,25.905h-11.803V5.03h11.803v4.525h-6.434v3.283h5.957v4.527h-5.957v3.941h6.434V25.905z"/>
			<path d="M182.996,18.308v7.598h-5.372V5.03h6.513c5.402,0,8.104,2.055,8.104,6.168c0,2.416-1.125,4.289-3.372,5.611l5.792,9.096
				h-6.091l-4.213-7.598H182.996z M182.996,14.065H184c1.878,0,2.816-0.869,2.816-2.613c0-1.436-0.92-2.154-2.758-2.154h-1.062
				V14.065z"/>
			<path d="M217.018,25.905l-0.979-3.916h-6.459l-1.004,3.916h-5.902L209.16,4.94h7.166l6.564,20.965H217.018z M214.926,17.366
				l-0.857-3.428c-0.197-0.76-0.44-1.746-0.729-2.955c-0.285-1.209-0.473-2.076-0.562-2.6c-0.082,0.486-0.242,1.287-0.481,2.4
				s-0.774,3.309-1.599,6.582H214.926L214.926,17.366z"/>
			<path d="M242.163,25.905h-5.37V9.644h-4.854V5.03h15.062v4.613h-4.84L242.163,25.905L242.163,25.905z"/>
			<path d="M270,25.905h-11.802V5.03H270v4.525h-6.432v3.283h5.955v4.527h-5.955v3.941H270V25.905z"/>
		</g>
		<path d="M30.15,12.96c0.148-1.695-5.126-7.836-4.917-9.482c0.116-0.947,3.846-2.902,4.74-2.559
			c0.959,0.365,3.394,9.002,4.195,9.066c1.64,0.143,8.288-10.076,10.211-9.986c1.313,0.062,4.201,1.67,4.208,3.438
			c0.005,1.586-11.761,9.754-12.047,11.494c-0.472,2.852,7.318,11.299,7.318,12.709c0,1.586-5.123,3.84-6.119,3.172
			c-2.064-1.379-5.289-12.018-5.768-12.135c-1.584-0.389-6.962,8.516-8.13,8.789c-1.043,0.244-3.985-2.213-3.985-3.209
			C19.856,22.132,29.973,15.036,30.15,12.96"/>
	</g>
	<g>
		<path d="M6.971,48.791l-1.134-2.898H2.19l-1.119,2.898H0l3.598-9.141h0.889l3.579,9.141H6.971z M5.508,44.939L4.45,42.12
			c-0.138-0.354-0.278-0.794-0.423-1.31c-0.091,0.395-0.221,0.834-0.392,1.31l-1.072,2.819H5.508z"/>
		<path d="M14.711,48.791h-1.058v-9.104h5.072v0.943h-4.014v3.33h3.771v0.938h-3.771V48.791z"/>
		<path d="M25.598,45.004v3.787h-1.056v-9.104h2.495c1.115,0,1.941,0.217,2.474,0.642c0.532,0.43,0.801,1.068,0.801,1.929
			c0,1.203-0.61,2.017-1.83,2.438l2.469,4.096h-1.249l-2.204-3.787H25.598z M25.598,44.095h1.453c0.745,0,1.292-0.15,1.643-0.447
			c0.347-0.295,0.523-0.74,0.523-1.335c0-0.596-0.18-1.034-0.535-1.301c-0.353-0.264-0.922-0.397-1.706-0.397h-1.378V44.095z"/>
		<path d="M36.751,48.791v-9.104h1.059v9.104H36.751z"/>
		<path d="M48.535,40.503c-0.999,0-1.789,0.334-2.367,0.998c-0.577,0.666-0.866,1.577-0.866,2.734c0,1.192,0.276,2.115,0.836,2.762
			c0.557,0.652,1.353,0.977,2.388,0.977c0.632,0,1.357-0.117,2.172-0.345v0.93c-0.633,0.238-1.409,0.35-2.335,0.35
			c-1.339,0-2.375-0.401-3.103-1.215c-0.728-0.812-1.092-1.972-1.092-3.47c0-0.937,0.175-1.759,0.526-2.465
			c0.35-0.702,0.856-1.247,1.519-1.631c0.662-0.382,1.44-0.572,2.339-0.572c0.954,0,1.787,0.175,2.499,0.522l-0.446,0.91
			C49.915,40.668,49.224,40.503,48.535,40.503z"/>
		<path d="M62.74,48.791l-1.133-2.898H57.96l-1.121,2.898h-1.073l3.6-9.141h0.891l3.578,9.141H62.74z M61.277,44.939l-1.06-2.819
			c-0.135-0.354-0.277-0.794-0.422-1.31c-0.09,0.395-0.223,0.834-0.394,1.31l-1.071,2.819H61.277z"/>
	</g>
</g>
</svg>
